<?xml version="1.0" encoding="UTF-8" standalone="no"?>
<!-- Created with Inkscape (http://www.inkscape.org/) -->

<svg
   version="1.1"
   id="svg1"
   width="1200"
   height="1200"
   viewBox="0 0 1200 1200"
   sodipodi:docname="becona.svg"
   inkscape:version="1.3 (0e150ed6c4, 2023-07-21)"
   xmlns:inkscape="http://www.inkscape.org/namespaces/inkscape"
   xmlns:sodipodi="http://sodipodi.sourceforge.net/DTD/sodipodi-0.dtd"
   xmlns="http://www.w3.org/2000/svg"
   xmlns:svg="http://www.w3.org/2000/svg">
  <defs
     id="defs1" />
  <sodipodi:namedview
     id="namedview1"
     pagecolor="#505050"
     bordercolor="#eeeeee"
     borderopacity="1"
     inkscape:showpageshadow="0"
     inkscape:pageopacity="0"
     inkscape:pagecheckerboard="0"
     inkscape:deskcolor="#505050"
     inkscape:zoom="0.6475"
     inkscape:cx="600"
     inkscape:cy="600"
     inkscape:window-width="1920"
     inkscape:window-height="991"
     inkscape:window-x="-9"
     inkscape:window-y="-9"
     inkscape:window-maximized="1"
     inkscape:current-layer="g1" />
  <g
     inkscape:groupmode="layer"
     inkscape:label="Image"
     id="g1">
    <g
       id="g2"
       transform="translate(30.888026,-41.698842)"
       style="fill:#1b1b1b;fill-opacity:1">
      <path
         style="fill:#1b1b1b;fill-opacity:1"
         d="m 268.15789,764 c 0,-1.375 0.22698,-1.9375 0.50439,-1.25 0.27741,0.6875 0.27741,1.8125 0,2.5 -0.27741,0.6875 -0.50439,0.125 -0.50439,-1.25 z M 592.75,598.25749 c 3.9875,-0.18981 10.5125,-0.18981 14.5,0 3.9875,0.18982 0.725,0.34512 -7.25,0.34512 -7.975,0 -11.2375,-0.1553 -7.25,-0.34512 z M 797.07895,465.41667 c 0.048,-1.16495 0.28494,-1.4019 0.60416,-0.60417 0.28887,0.72187 0.25335,1.58438 -0.0789,1.91667 -0.33229,0.33229 -0.56864,-0.25834 -0.52522,-1.3125 z M 847.25218,460.5 c 0.0111,-2.2 0.21589,-2.98225 0.45508,-1.73834 0.23919,1.24391 0.23011,3.04391 -0.0202,4 -0.25029,0.95609 -0.446,-0.0617 -0.4349,-2.26166 z m -495,-1 c 0.0111,-2.2 0.21589,-2.98225 0.45508,-1.73834 0.23919,1.24391 0.23011,3.04391 -0.0202,4 -0.25029,0.95609 -0.446,-0.0617 -0.4349,-2.26166 z m 48.82677,-1.08333 c 0.048,-1.16495 0.28494,-1.4019 0.60416,-0.60417 0.28887,0.72187 0.25335,1.58438 -0.0789,1.91667 -0.33229,0.33229 -0.56864,-0.25834 -0.52522,-1.3125 z M 847.232,450 c 0,-1.925 0.2058,-2.7125 0.45733,-1.75 0.25152,0.9625 0.25152,2.5375 0,3.5 -0.25153,0.9625 -0.45733,0.175 -0.45733,-1.75 z m -495,-1 c 0,-1.925 0.2058,-2.7125 0.45733,-1.75 0.25152,0.9625 0.25152,2.5375 0,3.5 -0.25153,0.9625 -0.45733,0.175 -0.45733,-1.75 z m 48.92589,-1 c 0,-1.375 0.22698,-1.9375 0.50439,-1.25 0.27741,0.6875 0.27741,1.8125 0,2.5 -0.27741,0.6875 -0.50439,0.125 -0.50439,-1.25 z M 641.75,404.25749 c 3.9875,-0.18981 10.5125,-0.18981 14.5,0 3.9875,0.18982 0.725,0.34512 -7.25,0.34512 -7.975,0 -11.2375,-0.1553 -7.25,-0.34512 z m -46.5,-17.99904 c 3.7125,-0.19241 9.7875,-0.19241 13.5,0 3.7125,0.19241 0.675,0.34983 -6.75,0.34983 -7.425,0 -10.4625,-0.15742 -6.75,-0.34983 z M 577.37817,331 c 0,-6.325 0.16237,-8.9125 0.36082,-5.75 0.19845,3.1625 0.19845,8.3375 0,11.5 -0.19845,3.1625 -0.36082,0.575 -0.36082,-5.75 z M 455,319.62244 c 0,-0.20765 0.7875,-0.99515 1.75,-1.75 1.58606,-1.24387 1.62143,-1.2085 0.37756,0.37756 C 455.82119,319.91575 455,320.44548 455,319.62244 Z M 592.25,207.31067 c 0.9625,-0.25152 2.5375,-0.25152 3.5,0 0.9625,0.25153 0.175,0.45733 -1.75,0.45733 -1.925,0 -2.7125,-0.2058 -1.75,-0.45733 z m 10,0 c 0.9625,-0.25152 2.5375,-0.25152 3.5,0 0.9625,0.25153 0.175,0.45733 -1.75,0.45733 -1.925,0 -2.7125,-0.2058 -1.75,-0.45733 z"
         id="path7" />
      <path
         style="fill:#1b1b1b;fill-opacity:1"
         d="m 588.26903,987.30701 c 0.97297,-0.25354 2.32297,-0.23687 3,0.0371 0.67703,0.27393 -0.11903,0.48137 -1.76903,0.46099 -1.65,-0.0204 -2.20394,-0.2445 -1.23097,-0.49804 z m 24.98097,0.004 c 0.9625,-0.25152 2.5375,-0.25152 3.5,0 0.9625,0.25153 0.175,0.45733 -1.75,0.45733 -1.925,0 -2.7125,-0.2058 -1.75,-0.45733 z M 866.42879,922.5 c 7e-4,-12.65 0.14401,-17.68711 0.31847,-11.19358 0.17445,6.49353 0.17388,16.84353 -10e-4,23 -0.17516,6.15647 -0.31789,0.84358 -0.31719,-11.80642 z M 905.46533,838 c 0,-28.875 0.12777,-40.6875 0.28394,-26.25 0.15616,14.4375 0.15616,38.0625 0,52.5 -0.15617,14.4375 -0.28394,2.625 -0.28394,-26.25 z M 589.75,657.33772 c 0.6875,-0.27741 1.8125,-0.27741 2.5,0 0.6875,0.27741 0.125,0.50439 -1.25,0.50439 -1.375,0 -1.9375,-0.22698 -1.25,-0.50439 z m 18,0 c 0.6875,-0.27741 1.8125,-0.27741 2.5,0 0.6875,0.27741 0.125,0.50439 -1.25,0.50439 -1.375,0 -1.9375,-0.22698 -1.25,-0.50439 z M 429.87244,635.25 c -1.24387,-1.58606 -1.2085,-1.62143 0.37756,-0.37756 1.66575,1.30637 2.19548,2.12756 1.37244,2.12756 -0.20765,0 -0.99515,-0.7875 -1.75,-1.75 z M 618,596.62244 c 0,-0.20765 0.7875,-0.99515 1.75,-1.75 1.58606,-1.24387 1.62143,-1.2085 0.37756,0.37756 C 618.82119,596.91575 618,597.44548 618,596.62244 Z m 119,0 c 0,-0.20765 0.7875,-0.99515 1.75,-1.75 1.58606,-1.24387 1.62143,-1.2085 0.37756,0.37756 C 737.82119,596.91575 737,597.44548 737,596.62244 Z M 579.36523,578.5 c 0.003,-5.5 0.17053,-7.62242 0.37317,-4.71648 0.20265,2.90594 0.20052,7.40594 -0.005,10 -0.20525,2.59406 -0.37104,0.21648 -0.36844,-5.28352 z m 12.42396,-102.24141 c 3.45905,-0.19583 8.85905,-0.19422 12,0.004 3.14094,0.19781 0.31081,0.35803 -6.28919,0.35606 -6.6,-0.002 -9.16987,-0.16382 -5.71081,-0.35965 z M 401.07895,461.41667 c 0.048,-1.16495 0.28494,-1.4019 0.60416,-0.60417 0.28887,0.72187 0.25335,1.58438 -0.0789,1.91667 -0.33229,0.33229 -0.56864,-0.25834 -0.52522,-1.3125 z M 847.15789,455 c 0,-1.375 0.22698,-1.9375 0.50439,-1.25 0.27741,0.6875 0.27741,1.8125 0,2.5 -0.27741,0.6875 -0.50439,0.125 -0.50439,-1.25 z m -495,-1 c 0,-1.375 0.22698,-1.9375 0.50439,-1.25 0.27741,0.6875 0.27741,1.8125 0,2.5 -0.27741,0.6875 -0.50439,0.125 -0.50439,-1.25 z M 598.25,256.31067 c 0.9625,-0.25152 2.5375,-0.25152 3.5,0 0.9625,0.25153 0.175,0.45733 -1.75,0.45733 -1.925,0 -2.7125,-0.2058 -1.75,-0.45733 z m -0.5,-48.97295 c 0.6875,-0.27741 1.8125,-0.27741 2.5,0 0.6875,0.27741 0.125,0.50439 -1.25,0.50439 -1.375,0 -1.9375,-0.22698 -1.25,-0.50439 z"
         id="path6" />
      <path
         style="fill:#1b1b1b;fill-opacity:1"
         d="m 593.76166,987.29274 c 1.24391,-0.23919 3.04391,-0.23011 4,0.0202 0.95609,0.25029 -0.0617,0.446 -2.26166,0.4349 -2.2,-0.0111 -2.98225,-0.21589 -1.73834,-0.45508 z m 13.48834,0.0179 c 0.9625,-0.25152 2.5375,-0.25152 3.5,0 0.9625,0.25153 0.175,0.45733 -1.75,0.45733 -1.925,0 -2.7125,-0.2058 -1.75,-0.45733 z m -13.5,-329.97295 c 0.6875,-0.27741 1.8125,-0.27741 2.5,0 0.6875,0.27741 0.125,0.50439 -1.25,0.50439 -1.375,0 -1.9375,-0.22698 -1.25,-0.50439 z m 10,0 c 0.6875,-0.27741 1.8125,-0.27741 2.5,0 0.6875,0.27741 0.125,0.50439 -1.25,0.50439 -1.375,0 -1.9375,-0.22698 -1.25,-0.50439 z M 426.40499,631.75 424.5,629.5 l 2.25,1.90499 c 2.11444,1.79022 2.70524,2.59501 1.90499,2.59501 -0.18976,0 -1.20226,-1.0125 -2.25,-2.25 z M 741.5,592 c 0.99549,-1.1 2.03498,-2 2.30998,-2 0.275,0 -0.31449,0.9 -1.30998,2 -0.99549,1.1 -2.03498,2 -2.30998,2 -0.275,0 0.31449,-0.9 1.30998,-2 z M 401.07895,464.41667 c 0.048,-1.16495 0.28494,-1.4019 0.60416,-0.60417 0.28887,0.72187 0.25335,1.58438 -0.0789,1.91667 -0.33229,0.33229 -0.56864,-0.25834 -0.52522,-1.3125 z M 593.26903,256.30701 c 0.97297,-0.25354 2.32297,-0.23687 3,0.0371 0.67703,0.27393 -0.11903,0.48137 -1.76903,0.46099 -1.65,-0.0204 -2.20394,-0.2445 -1.23097,-0.49804 z m 11,0 c 0.97297,-0.25354 2.32297,-0.23687 3,0.0371 0.67703,0.27393 -0.11903,0.48137 -1.76903,0.46099 -1.65,-0.0204 -2.20394,-0.2445 -1.23097,-0.49804 z"
         id="path5" />
      <path
         style="fill:#1b1b1b;fill-opacity:1"
         d="m 600.76166,987.29274 c 1.24391,-0.23919 3.04391,-0.23011 4,0.0202 0.95609,0.25029 -0.0617,0.446 -2.26166,0.4349 -2.2,-0.0111 -2.98225,-0.21589 -1.73834,-0.45508 z M 387.46274,862 c 0,-26.675 0.12889,-37.5875 0.28641,-24.25 0.15752,13.3375 0.15752,35.1625 0,48.5 -0.15752,13.3375 -0.28641,2.425 -0.28641,-24.25 z M 598.25,657.31067 c 0.9625,-0.25152 2.5375,-0.25152 3.5,0 0.9625,0.25153 0.175,0.45733 -1.75,0.45733 -1.925,0 -2.7125,-0.2058 -1.75,-0.45733 z M 422.87244,628.25 c -1.24387,-1.58606 -1.2085,-1.62143 0.37756,-0.37756 1.66575,1.30637 2.19548,2.12756 1.37244,2.12756 -0.20765,0 -0.99515,-0.7875 -1.75,-1.75 z m 38,-32 c -1.24387,-1.58606 -1.2085,-1.62143 0.37756,-0.37756 1.66575,1.30637 2.19548,2.12756 1.37244,2.12756 -0.20765,0 -0.99515,-0.7875 -1.75,-1.75 z M 744,589.62244 c 0,-0.20765 0.7875,-0.99515 1.75,-1.75 1.58606,-1.24387 1.62143,-1.2085 0.37756,0.37756 C 744.82119,589.91575 744,590.44548 744,589.62244 Z M 590.20625,522.25945 c 3.68844,-0.19186 9.98844,-0.19314 14,-0.003 4.01156,0.1903 0.99375,0.34727 -6.70625,0.34883 -7.7,0.002 -10.98219,-0.15414 -7.29375,-0.34599 z m 7.04375,-90.001 c 3.7125,-0.19241 9.7875,-0.19241 13.5,0 3.7125,0.19241 0.675,0.34983 -6.75,0.34983 -7.425,0 -10.4625,-0.15742 -6.75,-0.34983 z m -5,-121.00176 c 4.2625,-0.18745 11.2375,-0.18745 15.5,0 4.2625,0.18745 0.775,0.34082 -7.75,0.34082 -8.525,0 -12.0125,-0.15337 -7.75,-0.34082 z m -2.4375,-54.9398 c 0.72187,-0.28887 1.58438,-0.25335 1.91667,0.0789 0.33229,0.33229 -0.25834,0.56864 -1.3125,0.52522 -1.16495,-0.048 -1.4019,-0.28494 -0.60417,-0.60416 z m 19,0 c 0.72187,-0.28887 1.58438,-0.25335 1.91667,0.0789 0.33229,0.33229 -0.25834,0.56864 -1.3125,0.52522 -1.16495,-0.048 -1.4019,-0.28494 -0.60417,-0.60416 z"
         id="path4" />
      <path
         style="fill:#1b1b1b;fill-opacity:1"
         d="m 731,602.62244 c 0,-0.20765 0.7875,-0.99515 1.75,-1.75 1.58606,-1.24387 1.62143,-1.2085 0.37756,0.37756 C 731.82119,602.91575 731,603.44548 731,602.62244 Z M 457.40499,592.75 455.5,590.5 l 2.25,1.90499 c 2.11444,1.79022 2.70524,2.59501 1.90499,2.59501 -0.18976,0 -1.20226,-1.0125 -2.25,-2.25 z M 626.5,515 c 0.99549,-1.1 2.03498,-2 2.30998,-2 0.275,0 -0.31449,0.9 -1.30998,2 -0.99549,1.1 -2.03498,2 -2.30998,2 -0.275,0 0.31449,-0.9 1.30998,-2 z m -98.42105,-1.58333 c 0.048,-1.16495 0.28494,-1.4019 0.60416,-0.60417 0.28887,0.72187 0.25335,1.58438 -0.0789,1.91667 -0.33229,0.33229 -0.56864,-0.25834 -0.52522,-1.3125 z m 148,-20 c 0.048,-1.16495 0.28494,-1.4019 0.60416,-0.60417 0.28887,0.72187 0.25335,1.58438 -0.0789,1.91667 -0.33229,0.33229 -0.56864,-0.25834 -0.52522,-1.3125 z M 610.8125,476.31689 c 0.72187,-0.28887 1.58438,-0.25335 1.91667,0.0789 0.33229,0.33229 -0.25834,0.56864 -1.3125,0.52522 -1.16495,-0.048 -1.4019,-0.28494 -0.60417,-0.60416 z M 566.19495,409.5 c 0.0204,-1.65 0.2445,-2.20394 0.49804,-1.23097 0.25354,0.97297 0.23687,2.32297 -0.0371,3 -0.27393,0.67703 -0.48137,-0.11903 -0.46099,-1.76903 z"
         id="path3" />
      <path
         style="fill:#1b1b1b;fill-opacity:1"
         d="m 865.45455,990.54545 c -1.35,-1.35 -2.45455,-3.60562 -2.45455,-5.01249 0,-1.40687 3.37782,-9.30233 7.50626,-17.54546 6.50882,-12.99596 7.24592,-14.9875 5.54705,-14.9875 -3.23586,0 -6.76342,-2.06835 -7.94304,-4.65732 -1.53982,-3.37954 -1.51579,-49.35856 0.0276,-52.74585 C 869.25199,893.15152 873.46973,891 877.14922,891 878.92487,891 879,889.02698 879,842.39301 c 0,-38.46871 -0.26072,-48.5093 -1.25,-48.13864 -0.6875,0.2576 -14.60895,4.43787 -30.93656,9.2895 l -29.68655,8.82115 -0.36288,52.06749 c -0.35829,51.40897 -0.39198,52.14688 -2.66442,58.34465 -4.39448,11.98536 -14.25907,22.20979 -25.67755,26.61419 -6.55221,2.52736 -71.89787,21.53627 -88.20631,25.65903 -35.13664,8.88252 -66.63266,12.37694 -105.21573,11.67348 -36.57271,-0.66681 -60.69474,-3.87178 -93,-12.35643 -27.65536,-7.2634 -85.56946,-24.58449 -90.87722,-27.17978 -8.06453,-3.94325 -14.54049,-10.76139 -18.90712,-19.90618 L 388.5,919.5 388.21671,866.94978 387.93342,814.39956 334.21671,798.11925 C 304.67252,789.16508 279.02982,780.86268 277.23293,779.66947 273.26275,777.0331 269,768.91995 269,764 c 0,-5.01128 4.45191,-13.50236 8.32053,-15.86964 3.13664,-1.91938 279.1967,-84.74631 293.04167,-87.92196 10.18323,-2.33575 49.09237,-2.33575 59.2756,0 10.30023,2.36259 289.33066,85.72877 292.61647,87.42529 4.12134,2.12793 7.96721,8.61588 8.52049,14.37402 0.38051,3.96005 -0.0468,6.01911 -2.12222,10.22541 -3.14255,6.36916 -6.86143,9.03158 -16.15254,11.56395 l -7,1.9079 -0.25892,52.14752 C 904.98332,889.76741 904.99126,890 907.0232,890 c 1.12257,0 3.57507,0.64096 5.45001,1.42436 5.12596,2.14176 5.71552,5.75718 5.34341,32.76817 l -0.31662,22.98395 -2.80576,2.41176 C 913.15107,950.91471 910.78857,952 909.44424,952 908.09991,952 907,952.16566 907,952.36814 c 0,0.20247 3.42899,7.44121 7.61997,16.08609 6.75907,13.94215 7.51786,16.07397 6.71621,18.86917 -1.51445,5.28058 -3.4249,5.64562 -29.63163,5.66186 L 867.90909,993 Z M 430.93213,635.25 C 399.11488,605.02687 374.41049,564.34558 362.4628,522.5 c -5.86527,-20.54255 -8.37259,-37.0157 -9.13237,-60 -1.41348,-42.7594 7.03354,-81.53884 25.87573,-118.79285 18.04768,-35.68313 41.01684,-63.04285 73.48062,-87.52646 24.10315,-18.17816 57.06469,-33.65199 87.51185,-41.08251 22.09399,-5.39197 32.82218,-6.57449 59.30137,-6.53655 21.31996,0.0306 25.73086,0.33096 39.5,2.69019 C 746.18385,229.61687 828.00808,312.34686 844.47372,419 c 2.25211,14.58765 3.06324,43.77716 1.6238,58.43457 -6.26848,63.83011 -36.46029,121.74139 -86.2148,165.36967 l -2.61728,2.29502 -28.88272,-8.65025 c -15.8855,-4.75764 -29.21075,-8.9555 -29.61168,-9.32859 -0.40092,-0.37308 1.84908,-2.20575 5,-4.07259 28.92561,-17.13768 57.34957,-47.97277 72.81962,-78.99671 14.41735,-28.91285 20.22397,-52.0088 21.13154,-84.05112 0.95406,-33.68388 -4.82447,-61.67102 -18.74433,-90.78439 -27.96849,-58.49607 -81.48001,-99.04484 -145.59661,-110.32698 -16.69999,-2.93857 -48.26964,-3.19939 -63.83831,-0.52741 -44.92338,7.70999 -80.97603,26.57876 -111.65191,58.43492 -23.21248,24.1056 -37.6404,48.02577 -47.77336,79.20386 -7.87163,24.22023 -10.84158,53.25287 -8.05992,78.78941 6.60365,60.62347 39.7743,113.981 91.43452,147.07943 4.21793,2.70241 7.29518,5.13625 6.83834,5.40853 C 499.49607,627.77478 442.44358,645 441.63066,645 c -0.23885,0 -5.05318,-4.3875 -10.69853,-9.75 z M 583,596.7434 c -2.47326,-1.28581 -2.50296,-1.45682 -2.77655,-15.99016 l -0.27656,-14.69045 -4.22344,-1.06495 c -8.1013,-2.04274 -16.25921,-5.29644 -21.22345,-8.46473 -13.97339,-8.91816 -23.85274,-24.44609 -25.18118,-39.57866 -0.52638,-5.9961 -0.36149,-6.79355 1.96428,-9.5 L 533.82199,504.5 547.661,504.16727 c 18.28612,-0.43965 20.76875,0.3055 23.81503,7.14801 4.6383,10.41849 8.3692,11.93909 28.23692,11.50854 14.3461,-0.3109 15.17864,-0.44442 20.86469,-3.34631 4.32723,-2.20842 6.79772,-4.32624 9.17236,-7.86302 2.91239,-4.33768 3.24961,-5.58191 3.24626,-11.9775 -0.004,-7.41392 -1.41905,-11.08691 -6.35125,-16.48431 -5.01496,-5.48796 -8.78145,-6.43507 -28.64501,-7.20298 -23.56921,-0.91118 -31.68799,-3.08538 -45.1201,-12.08308 -22.30934,-14.94427 -33.88295,-42.14406 -28.45215,-66.86699 1.97481,-8.99003 2.98962,-12.04918 5.95662,-17.95636 8.37137,-16.66701 21.86129,-27.9531 39.99323,-33.45957 l 7.1224,-2.163 0.5,-12.96035 c 0.50075,-12.97968 1.43662,-16.64645 4.55401,-17.8427 0.88526,-0.33971 8.91291,-0.61765 17.83922,-0.61765 21.82666,0 21.4232,-0.36684 21.86083,19.8772 l 0.24594,11.3772 7.49592,1.94523 c 4.12275,1.06988 10.19775,3.37343 13.5,5.119 8.02168,4.24028 18.16535,14.60541 22.24317,22.72881 4.26083,8.48797 6.70902,20.06473 5.20617,24.61842 -1.93184,5.85353 -3.56161,6.33414 -21.4792,6.33414 -14.77989,0 -16.26602,-0.16498 -18.26539,-2.02768 -1.19705,-1.11522 -2.47809,-3.25272 -2.84675,-4.75 -1.06527,-4.32648 -3.36868,-7.1892 -7.46684,-9.27993 -3.30057,-1.68382 -5.90932,-1.93947 -19.59724,-1.92043 -13.71625,0.0191 -16.3808,0.28947 -20.28984,2.05895 -17.11097,7.74553 -19.65142,29.33008 -4.6588,39.58274 6.24011,4.26728 12.11276,5.33635 29.31368,5.33635 16.53773,0 23.04421,1.26042 33.59429,6.50783 19.79558,9.84594 32.74929,27.92494 36.43766,50.85466 1.54153,9.58331 1.54591,11.08949 0.0583,20.03584 -4.04562,24.32935 -20.49212,43.20921 -45.03632,51.69972 L 622.5,564.93768 622,578.94497 c -0.6843,19.17036 0.0927,18.46622 -20.77505,18.82658 -11.4085,0.19701 -16.41119,-0.0852 -18.22495,-1.02815 z"
         id="path2" />
    </g>
  </g>
</svg>
