<?xml version="1.0" encoding="UTF-8" standalone="no"?>
<!-- Created with Inkscape (http://www.inkscape.org/) -->

<svg
   version="1.1"
   id="svg1"
   width="512"
   height="512"
   viewBox="0 0 512 512"
   sodipodi:docname="credencial.svg"
   inkscape:version="1.3 (0e150ed6c4, 2023-07-21)"
   xmlns:inkscape="http://www.inkscape.org/namespaces/inkscape"
   xmlns:sodipodi="http://sodipodi.sourceforge.net/DTD/sodipodi-0.dtd"
   xmlns="http://www.w3.org/2000/svg"
   xmlns:svg="http://www.w3.org/2000/svg">
  <defs
     id="defs1" />
  <sodipodi:namedview
     id="namedview1"
     pagecolor="#505050"
     bordercolor="#eeeeee"
     borderopacity="1"
     inkscape:showpageshadow="0"
     inkscape:pageopacity="0"
     inkscape:pagecheckerboard="0"
     inkscape:deskcolor="#505050"
     inkscape:zoom="1.5175781"
     inkscape:cx="256"
     inkscape:cy="256"
     inkscape:window-width="1920"
     inkscape:window-height="991"
     inkscape:window-x="-9"
     inkscape:window-y="-9"
     inkscape:window-maximized="1"
     inkscape:current-layer="g1" />
  <g
     inkscape:groupmode="layer"
     inkscape:label="Image"
     id="g1">
    <g
       id="g2"
       transform="translate(-1.9768306)"
       style="fill:#1b1b1b;fill-opacity:1">
      <path
         style="fill:#1b1b1b;fill-opacity:1"
         d="m 277.07895,338.41667 c 0.048,-1.16495 0.28494,-1.4019 0.60416,-0.60417 0.28887,0.72187 0.25335,1.58438 -0.0789,1.91667 -0.33229,0.33229 -0.56864,-0.25834 -0.52522,-1.3125 z M 314.30987,268.5 c 0.006,-3.3 0.1923,-4.52944 0.41486,-2.73209 0.22256,1.79735 0.21797,4.49735 -0.0102,6 -0.22818,1.50265 -0.41027,0.0321 -0.40466,-3.26791 z m -4.8986,-37.5 c 0,-9.625 0.14998,-13.5625 0.3333,-8.75 0.18331,4.8125 0.18331,12.6875 0,17.5 -0.18332,4.8125 -0.3333,0.875 -0.3333,-8.75 z M 176.32479,145.25024 c 23.00364,-0.14977 60.35364,-0.14971 83,1.3e-4 22.64637,0.14984 3.82521,0.27237 -41.82479,0.2723 -45.65,-7e-5 -64.17884,-0.12266 -41.17521,-0.27243 z m 167.86979,0.004 c 5.88201,-0.17649 15.78201,-0.17711 22,-0.001 6.21798,0.17574 1.40542,0.32014 -10.69458,0.32089 -12.1,7.6e-4 -17.18744,-0.14302 -11.30542,-0.31951 z M 231.75,117.25085 c 13.3375,-0.15752 35.1625,-0.15752 48.5,0 13.3375,0.15752 2.425,0.28641 -24.25,0.28641 -26.675,0 -37.5875,-0.12889 -24.25,-0.28641 z"
         id="path8" />
      <path
         style="fill:#1b1b1b;fill-opacity:1"
         d="m 324.41858,232 c 0,-10.725 0.14711,-15.1125 0.32692,-9.75 0.17981,5.3625 0.17981,14.1375 0,19.5 -0.17981,5.3625 -0.32692,0.975 -0.32692,-9.75 z M 231.25,132.25082 c 13.6125,-0.15717 35.8875,-0.15717 49.5,0 13.6125,0.15716 2.475,0.28576 -24.75,0.28576 -27.225,0 -38.3625,-0.1286 -24.75,-0.28576 z"
         id="path7" />
      <path
         style="fill:#1b1b1b;fill-opacity:1"
         d="m 237.15789,339 c 0,-1.375 0.22698,-1.9375 0.50439,-1.25 0.27741,0.6875 0.27741,1.8125 0,2.5 -0.27741,0.6875 -0.50439,0.125 -0.50439,-1.25 z m 55.15198,-4.5 c 0.006,-3.3 0.1923,-4.52944 0.41486,-2.73209 0.22256,1.79735 0.21797,4.49735 -0.0102,6 -0.22818,1.50265 -0.41027,0.0321 -0.40466,-3.26791 z M 329.29966,269 c 0,-3.025 0.18747,-4.2625 0.41659,-2.75 0.22913,1.5125 0.22913,3.9875 0,5.5 -0.22912,1.5125 -0.41659,0.275 -0.41659,-2.75 z m -89.11368,-74.74801 c 9.17729,-0.16487 24.47729,-0.16517 34,-6.6e-4 9.52271,0.16451 2.01402,0.29941 -16.68598,0.29977 -18.7,3.6e-4 -26.49131,-0.13424 -17.31402,-0.29911 z M 176.75,160.25031 c 22.6875,-0.14987 59.8125,-0.14987 82.5,0 22.6875,0.14987 4.125,0.27249 -41.25,0.27249 -45.375,0 -63.9375,-0.12262 -41.25,-0.27249 z m 167.5,0.003 c 5.9125,-0.1768 15.5875,-0.1768 21.5,0 5.9125,0.17679 1.075,0.32145 -10.75,0.32145 -11.825,0 -16.6625,-0.14466 -10.75,-0.32145 z m -135,-74.970044 c 1.5125,-0.229125 3.9875,-0.229125 5.5,0 1.5125,0.229124 0.275,0.41659 -2.75,0.41659 -3.025,0 -4.2625,-0.187466 -2.75,-0.41659 z m 88,0 c 1.5125,-0.229125 3.9875,-0.229125 5.5,0 1.5125,0.229124 0.275,0.41659 -2.75,0.41659 -3.025,0 -4.2625,-0.187466 -2.75,-0.41659 z M 120.32158,67.250467 c 16.40187,-0.154247 42.95187,-0.154137 59,2.43e-4 16.04813,0.15438 2.62842,0.280582 -29.82158,0.280448 -32.45,-1.34e-4 -45.58029,-0.126445 -29.17842,-0.280691 z m 213,0 c 16.40187,-0.154247 42.95187,-0.154137 59,2.43e-4 16.04813,0.15438 2.62842,0.280582 -29.82158,0.280448 -32.45,-1.34e-4 -45.58029,-0.126445 -29.17842,-0.280691 z"
         id="path6" />
      <path
         style="fill:#1b1b1b;fill-opacity:1"
         d="m 135.79748,458.25525 c 4.56362,-0.18572 11.76362,-0.18468 16,0.002 4.23639,0.18698 0.50252,0.33893 -8.29748,0.33766 -8.8,-0.001 -12.26613,-0.15425 -7.70252,-0.33996 z m 103.95252,-0.005 c 26.5375,-0.14819 69.9625,-0.14819 96.5,0 26.5375,0.14819 4.825,0.26943 -48.25,0.26943 -53.075,0 -74.7875,-0.12124 -48.25,-0.26943 z M 200.30987,268.5 c 0.006,-3.3 0.1923,-4.52944 0.41486,-2.73209 0.22256,1.79735 0.21797,4.49735 -0.0102,6 -0.22818,1.50265 -0.41027,0.0321 -0.40466,-3.26791 z m 9.68558,-31.29634 0.49545,-12.70366 0.28773,11.91682 c 0.15825,6.55425 -0.0647,12.2709 -0.49545,12.70366 -0.43075,0.43277 -0.56023,-4.9298 -0.28773,-11.91682 z M 205.41318,230.5 c 10e-4,-9.9 0.1507,-13.81474 0.33256,-8.69942 0.18186,5.11532 0.181,13.21532 -0.002,18 -0.18291,4.78468 -0.3317,0.59942 -0.33065,-9.30058 z m 3,-196 c 10e-4,-9.9 0.1507,-13.814738 0.33256,-8.699419 0.18186,5.11532 0.181,13.21532 -0.002,18 C 208.56092,48.585262 208.41213,44.4 208.41318,34.5 Z m 95,0 c 10e-4,-9.9 0.1507,-13.814738 0.33256,-8.699419 0.18186,5.11532 0.181,13.21532 -0.002,18 C 303.56092,48.585262 303.41213,44.4 303.41318,34.5 Z"
         id="path5" />
      <path
         style="fill:#1b1b1b;fill-opacity:1"
         d="m 135.48364,278.5 c 3e-5,-64.35 0.11984,-90.52777 0.26624,-58.17282 0.14639,32.35494 0.14636,85.00494 -7e-5,117 -0.14643,31.99505 -0.26621,5.52282 -0.26617,-58.82718 z m 240.99958,-3 c -3e-5,-62.7 0.11992,-88.49716 0.26658,-57.32702 0.14666,31.17014 0.14669,82.47014 7e-5,114 C 376.60325,363.70284 376.48326,338.2 376.48322,275.5 Z M 299,322.62244 c 0,-0.20765 0.7875,-0.99515 1.75,-1.75 1.58606,-1.24387 1.62143,-1.2085 0.37756,0.37756 C 299.82119,322.91575 299,323.44548 299,322.62244 Z M 230.25,222.31067 c 0.9625,-0.25152 2.5375,-0.25152 3.5,0 0.9625,0.25153 0.175,0.45733 -1.75,0.45733 -1.925,0 -2.7125,-0.2058 -1.75,-0.45733 z m 51.51166,-0.0179 c 1.24391,-0.23919 3.04391,-0.23011 4,0.0202 0.95609,0.25029 -0.0617,0.446 -2.26166,0.4349 -2.2,-0.0111 -2.98225,-0.21589 -1.73834,-0.45508 z M 203.29966,109 c 0,-3.025 0.18747,-4.2625 0.41659,-2.75 0.22913,1.5125 0.22913,3.9875 0,5.5 -0.22912,1.5125 -0.41659,0.275 -0.41659,-2.75 z m 105,0 c 0,-3.025 0.18747,-4.2625 0.41659,-2.75 0.22913,1.5125 0.22913,3.9875 0,5.5 -0.22912,1.5125 -0.41659,0.275 -0.41659,-2.75 z"
         id="path4" />
      <path
         style="fill:#1b1b1b;fill-opacity:1"
         d="m 70.490729,282 c 0,-115.775 0.11665,-163.1375 0.259222,-105.25 0.142571,57.8875 0.142571,152.6125 0,210.5 -0.142572,57.8875 -0.259222,10.525 -0.259222,-105.25 z m 371.000001,0 c 0,-115.775 0.11665,-163.1375 0.25922,-105.25 0.14257,57.8875 0.14257,152.6125 0,210.5 -0.14257,57.8875 -0.25922,10.525 -0.25922,-105.25 z M 195.75,437.25015 c 33.1375,-0.14617 87.3625,-0.14617 120.5,0 33.1375,0.14617 6.025,0.26576 -60.25,0.26576 -66.275,0 -93.3875,-0.11959 -60.25,-0.26576 z m 45,-422.998134 c 8.3875,-0.16726 22.1125,-0.16726 30.5,0 8.3875,0.167259 1.525,0.304108 -15.25,0.304108 -16.775,0 -23.6375,-0.136849 -15.25,-0.304108 z"
         id="path3" />
      <path
         style="fill:#1b1b1b;fill-opacity:1"
         d="m 85.764045,511.01015 c -5.054232,-1.53268 -9.763438,-5.15297 -12.272893,-9.43504 L 71,497.32428 71.01645,282.41214 71.032901,67.5 73.274936,63.541591 c 1.233119,-2.177124 4.189111,-5.327124 6.568872,-7 L 84.170647,53.5 146.58532,53.220958 209,52.941915 V 33.438839 c 0,-14.209761 0.37021,-20.389112 1.36403,-22.767649 1.73906,-4.1621727 6.65005,-8.3032646 11.41702,-9.6271837 4.93824,-1.37148348 63.49966,-1.37148348 68.4379,0 4.76697,1.3239191 9.67796,5.465011 11.41702,9.6271837 C 302.62979,13.049727 303,19.229078 303,33.438839 v 19.503076 l 62.41468,0.279043 62.41467,0.279042 4.32684,3.041591 c 2.37976,1.672876 5.33576,4.822876 6.56887,7 L 440.9671,67.5 440.9835,282.09272 441,496.68543 l -2.32764,4.40729 c -1.52867,2.89447 -3.99027,5.43704 -7.17141,7.40728 l -4.84378,3 -169.07858,0.16991 c -92.99323,0.0934 -170.30977,-0.20345 -171.814545,-0.65976 z M 425.42857,495.42857 C 426.84723,494.00991 427,473.30303 427,282.42857 427,72.333333 426.98739,70.987387 425,69 c -1.95521,-1.955206 -3.33333,-2 -61.53138,-2 -46.75007,0 -59.61527,0.268374 -59.92209,1.25 -0.21489,0.6875 -0.67873,2.977898 -1.03077,5.089773 -0.42108,2.526085 -2.03088,5.348628 -4.70527,8.25 L 293.74528,86 h 7.15948 c 8.58932,0 12.56868,1.49731 16.80631,6.32371 3.74532,4.265679 5.27778,9.10782 5.27778,16.67629 0,10.77369 -3.70075,17.60149 -11.44748,21.12034 -3.75213,1.70435 -7.74795,1.83731 -55.83121,1.8577 -49.45319,0.021 -51.96283,-0.0663 -55.62421,-1.93419 -7.61688,-3.88584 -11.0748,-10.45642 -11.0748,-21.04385 0,-7.56847 1.53246,-12.410611 5.27778,-16.67629 C 198.52656,87.49731 202.50592,86 211.09524,86 h 7.15948 l -4.06521,-4.410227 c -2.67439,-2.901372 -4.28419,-5.723915 -4.70527,-8.25 C 209.1322,71.227898 208.66836,68.9375 208.45347,68.25 208.14665,67.268374 195.28145,67 148.53138,67 90.333333,67 88.955206,67.044794 87,69 c -1.987387,1.987387 -2,3.333333 -2,213.42857 0,190.87446 0.152767,211.58134 1.571429,213 C 87.987518,496.84466 104.73593,497 256,497 c 151.26407,0 168.01248,-0.15534 169.42857,-1.57143 z M 123.45455,470.54545 c -2.99864,-2.99863 -3.10374,-5.45043 -0.38197,-8.91059 L 125.14516,459 H 143.5 161.85484 l 2.07258,2.63486 c 2.72177,3.46016 2.61667,5.91196 -0.38197,8.91059 C 161.12544,472.96547 160.84343,473 143.5,473 c -17.34343,0 -17.62544,-0.0345 -20.04545,-2.45455 z m 65,0 C 185.48154,467.57245 185.29727,463.70273 188,461 c 1.97291,-1.97291 3.33333,-2 100.42742,-2 h 98.42742 l 2.07258,2.63486 c 2.72177,3.46016 2.61667,5.91196 -0.38197,8.91059 L 386.09091,473 H 288.5 190.90909 Z m -59.44523,-35.40079 c -2.04562,-1.09707 -4.39357,-3.62174 -5.74506,-6.17745 l -2.2856,-4.32213 0.26067,-134.24936 c 0.25985,-133.82915 0.26712,-134.25801 2.32246,-137.01075 1.13398,-1.51877 3.30432,-3.6892 4.82298,-4.82318 2.73189,-2.03991 3.67195,-2.06462 88.60278,-2.32812 l 85.84159,-0.26634 2.08543,2.65119 c 2.62742,3.34022 2.63047,5.41886 0.0128,8.74662 L 302.85484,160 h -83.4588 c -65.84651,0 -83.55926,0.26379 -83.93481,1.25 -0.26181,0.6875 -0.36018,53.675 -0.21862,117.75 l 0.25739,116.5 4,-7.49449 c 4.91088,-9.20113 13.88985,-18.46562 22,-22.69955 5.3677,-2.80223 40.5092,-14.37871 52.77594,-17.38571 C 221.04572,346.26075 223,343.41859 223,335.23262 v -6.49766 l -6.25,-5.75233 c -7.63544,-7.02745 -12.41359,-14.75501 -15.2902,-24.72838 -1.80546,-6.2596 -2.67213,-7.80207 -5.06881,-9.02124 -8.0087,-4.07397 -10.37632,-8.93762 -10.38541,-21.33407 -0.005,-6.19423 0.45713,-8.4713 2.49442,-12.30292 2.43064,-4.5714 2.5,-5.26623 2.5,-25.0436 0,-17.59407 0.27327,-21.2265 2.02309,-26.89177 2.56692,-8.3107 9.57297,-16.33283 17.78682,-20.36641 L 216.5,180.5 h 41 41 l 5.64796,2.64796 c 7.1925,3.37209 13.33199,9.51158 16.70408,16.70408 2.58555,5.51483 2.65549,6.18874 2.96736,28.59105 0.30215,21.70416 0.43715,23.10817 2.5,26 1.92839,2.70335 2.1806,4.3496 2.1806,14.23358 0,9.77401 -0.26254,11.53099 -2.09195,14 -1.92664,2.60023 -7.14807,6.73667 -9.48846,7.5168 -0.5415,0.1805 -1.68094,2.99498 -2.53209,6.2544 -2.57415,9.85751 -7.0621,17.44806 -15.02675,25.41503 L 292,329.22581 v 6.33133 c 0,8.18456 2.00994,10.54564 11,12.92172 18.01006,4.76007 47.97456,14.98657 53.2163,18.16204 6.45151,3.90836 14.56626,12.48798 17.39328,18.3897 1.03973,2.17055 2.22983,3.95162 2.64466,3.95793 0.41483,0.006 0.63983,-51.40103 0.5,-114.23853 L 376.5,160.5 l -22.69207,-0.26863 -22.69207,-0.26862 -2.05793,-2.61623 c -2.71844,-3.45593 -2.59651,-5.89885 0.44627,-8.94163 l 2.50421,-2.50421 24.42503,0.29966 c 26.86217,0.32956 26.89127,0.33609 32.00477,7.18458 2.05529,2.75265 2.06262,3.18431 2.32594,137.00418 l 0.26414,134.24283 -2.28907,4.3287 c -1.3547,2.56178 -3.70118,5.08602 -5.74854,6.18403 C 379.6746,436.9231 374.41081,437 256,437 137.58919,437 132.3254,436.9231 129.00932,435.14466 Z M 368.25827,417.75 c -1.25282,-14.67673 -5.93412,-26.52109 -13.45429,-34.04125 -5.49964,-5.49965 -9.07167,-7.27175 -24.40341,-12.10665 L 319.5,368.16458 l -4,3.70584 c -2.2,2.03822 -8.15579,7.63477 -13.23509,12.43679 -14.05048,13.28348 -17.15166,13.7773 -33.86544,5.39264 l -10.89742,-5.46683 -10.90053,5.46683 c -11.7819,5.90884 -16.8345,6.80808 -22.24003,3.95818 -1.57382,-0.82974 -8.64369,-6.91097 -15.71083,-13.51382 -7.06714,-6.60286 -13.36714,-11.82894 -14,-11.6135 -0.63286,0.21543 -6.32566,2.03946 -12.65066,4.0534 -6.47066,2.06032 -13.78424,5.17335 -16.72311,7.11819 -10.32778,6.83458 -17.64758,20.61594 -20.7397,39.0477 L 143.8242,423 h 112.44111 112.4411 z M 236.93606,378.58957 c 5.18177,-2.71006 6.35235,-1.71852 -11.81746,-10.01003 -6.80977,-3.10754 -12.56716,-5.46431 -12.79419,-5.23728 -0.59691,0.59691 17.98376,17.66034 19.17559,17.60979 0.55,-0.0233 2.99623,-1.08645 5.43606,-2.36248 z m 57.28285,-6.59331 c 9.88909,-9.59357 9.74015,-9.73377 -3.71891,-3.50062 -4.4,2.03772 -10.025,4.5987 -12.5,5.69106 l -4.5,1.98611 4.5,2.36841 c 2.475,1.30262 5.04851,2.38874 5.71891,2.41359 0.67039,0.0249 5.39539,-4.00649 10.5,-8.95855 z m -23.60569,-10.04969 c 7.05484,-3.32939 13.02518,-6.25163 13.26742,-6.49387 0.24224,-0.24224 -0.3496,-1.31341 -1.31519,-2.38037 -2.39765,-2.64939 -4.46858,-8.78202 -4.52156,-13.38972 -0.0363,-3.16093 -0.34483,-3.7262 -1.79389,-3.28716 -9.76975,2.96012 -23.65753,3.43082 -32.58869,1.10455 -3.16739,-0.825 -5.96193,-1.5 -6.2101,-1.5 -0.24817,0 -0.45121,1.97361 -0.45121,4.38581 0,2.88352 -0.96906,6.22323 -2.82909,9.75 l -2.82909,5.36419 12.57909,6.16102 c 6.9185,3.38857 12.8685,6.20107 13.22221,6.25 0.35372,0.0489 6.41527,-2.63506 13.4701,-5.96445 z m 5.79974,-41.24492 c 4.15085,-1.97123 9.8169,-5.70727 12.59121,-8.30232 6.53583,-6.1135 11.77035,-16.54872 12.65293,-25.22413 0.80328,-7.89586 2.64261,-10.31404 8.43289,-11.08671 L 314.5,275.5 l 0.29772,-6.25 c 0.29215,-6.1331 0.24932,-6.25 -2.28984,-6.25 -1.42316,0 -4.3517,0.9 -6.50788,2 -5.23279,2.66957 -9.26124,2.53905 -12.69424,-0.4113 L 290.5,262.1774 290.20691,243.3387 c -0.25048,-16.10034 -0.53264,-19.0204 -1.94113,-20.0887 -2.68955,-2.03996 -8.32277,-1.48217 -12.21203,1.2092 -9.91218,6.85924 -26.79056,6.81005 -37.03588,-0.10794 -3.67949,-2.48452 -8.84844,-3.04749 -12.08361,-1.31608 C 225.12868,224.0015 225,225.30389 225,242.61211 v 18.54174 l -2.92308,2.92307 c -3.51473,3.51474 -7.45124,3.79827 -12.81574,0.92308 -2.05236,-1.1 -4.9972,-2 -6.54409,-2 h -2.81252 l 0.29771,6.25 0.29772,6.25 4.21402,0.56245 c 6.05164,0.80771 7.89417,2.91479 8.61982,9.85742 1.36421,13.05207 8.13113,24.19262 18.93735,31.17701 9.35277,6.04499 16.41547,7.99129 27.41179,7.554 8.04592,-0.31996 10.11747,-0.80896 16.72998,-3.94923 z m -65.23335,-86.03334 c 0.31408,-15.02988 0.37554,-15.40391 3.12208,-19.00105 4.37676,-5.73221 7.88614,-7.14997 17.69831,-7.14997 6.69086,0 9.21852,0.42384 11.87588,1.99135 7.6265,4.4987 8.82775,4.90733 14.28728,4.86019 4.65135,-0.0402 6.58119,-0.63799 10.80135,-3.34606 8.85679,-5.68338 21.89498,-5.37766 29.09681,0.68228 5.40701,4.5497 6.25362,7.44951 6.74496,23.10294 0.37623,11.98611 0.68508,14.21744 1.9032,13.75 0.79975,-0.3069 1.86729,-0.55799 2.37231,-0.55799 0.52658,0 0.90884,-8.21048 0.89625,-19.25 -0.0188,-16.45415 -0.28645,-19.8322 -1.84302,-23.25858 -2.2903,-5.04149 -7.94198,-10.06619 -12.85769,-11.43129 -5.24585,-1.45679 -70.49623,-1.40463 -75.77403,0.0606 -5.2176,1.44848 -11.93412,8.165 -13.3826,13.3826 -0.62434,2.24892 -1.11198,11.94713 -1.11512,22.17715 -0.006,18.06074 0.009,18.1833 2.24442,18.61382 1.2375,0.23835 2.55582,0.49465 2.92961,0.56955 0.37378,0.0749 0.82378,-6.76308 1,-15.19551 z M 307.4433,115.77749 C 308.29948,114.55512 309,111.50524 309,109 c 0,-2.50524 -0.70052,-5.55512 -1.5567,-6.77749 C 305.95527,100.09806 305.24117,100 291.25765,100 h -14.62894 l -4.95915,4.18162 c -2.72754,2.29989 -6.56415,4.99989 -8.5258,6 -7.06352,3.60119 -13.40476,1.93341 -22.81332,-6 L 235.37129,100 h -14.62894 c -13.98352,0 -14.69762,0.0981 -16.18565,2.22251 C 203.70052,103.44488 203,106.49476 203,109 c 0,2.50524 0.70052,5.55512 1.5567,6.77749 L 206.11341,118 H 256 305.88659 Z M 272.93717,84.399302 289,70.798604 V 43.434486 c 0,-26.030646 -0.0943,-27.414564 -1.93426,-28.399302 -2.62207,-1.403291 -59.50941,-1.403291 -62.13148,0 C 223.09433,16.019882 223,17.403518 223,43.406108 v 27.33574 l 16.06573,13.629076 C 247.90187,91.866916 255.5236,98 256.0029,98 c 0.4793,0 8.09972,-6.120314 16.93427,-13.600698 z"
         id="path2" />
    </g>
  </g>
</svg>
