<?xml version="1.0" encoding="UTF-8" standalone="no"?>
<!-- Created with Inkscape (http://www.inkscape.org/) -->

<svg
   version="1.1"
   id="svg1"
   width="512"
   height="512"
   viewBox="0 0 512 512"
   sodipodi:docname="descargas.svg"
   inkscape:version="1.3 (0e150ed6c4, 2023-07-21)"
   xmlns:inkscape="http://www.inkscape.org/namespaces/inkscape"
   xmlns:sodipodi="http://sodipodi.sourceforge.net/DTD/sodipodi-0.dtd"
   xmlns="http://www.w3.org/2000/svg"
   xmlns:svg="http://www.w3.org/2000/svg">
  <defs
     id="defs1" />
  <sodipodi:namedview
     id="namedview1"
     pagecolor="#505050"
     bordercolor="#eeeeee"
     borderopacity="1"
     inkscape:showpageshadow="0"
     inkscape:pageopacity="0"
     inkscape:pagecheckerboard="0"
     inkscape:deskcolor="#505050"
     inkscape:zoom="1.5175781"
     inkscape:cx="256"
     inkscape:cy="256"
     inkscape:window-width="1920"
     inkscape:window-height="991"
     inkscape:window-x="-9"
     inkscape:window-y="-9"
     inkscape:window-maximized="1"
     inkscape:current-layer="g1" />
  <g
     inkscape:groupmode="layer"
     inkscape:label="Image"
     id="g1">
    <g
       id="g2"
       transform="translate(9.8841701,-21.745174)"
       style="fill:#1b1b1b;fill-opacity:1">
      <path
         style="fill:#1b1b1b;fill-opacity:1"
         d="M 189.99656,317.25 135.5,262.5 190.25,316.99656 C 241.14202,367.653 245.44896,372 244.74656,372 c -0.13939,0 -24.77689,-24.6375 -54.75,-54.75 z M 321,317.5 c 29.97122,-29.975 54.71812,-54.5 54.99312,-54.5 0.275,0 -24.0219,24.525 -53.99312,54.5 -29.97122,29.975 -54.71812,54.5 -54.99312,54.5 -0.275,0 24.0219,-24.525 53.99312,-54.5 z"
         id="path4" />
      <path
         style="fill:#1b1b1b;fill-opacity:1"
         d="M 199,281.5 C 176.73009,259.225 158.73426,241 159.00926,241 c 0.275,0 18.72083,18.225 40.99074,40.5 22.26991,22.275 40.26574,40.5 39.99074,40.5 -0.275,0 -18.72083,-18.225 -40.99074,-40.5 z m 113,0 c 22.26991,-22.275 40.71574,-40.5 40.99074,-40.5 0.275,0 -17.72083,18.225 -39.99074,40.5 -22.26991,22.275 -40.71574,40.5 -40.99074,40.5 -0.275,0 17.72083,-18.225 39.99074,-40.5 z"
         id="path3" />
      <path
         style="fill:#1b1b1b;fill-opacity:1"
         d="m 99.315235,430.90447 c -4.379655,-1.27597 -9.055807,-6.22731 -10.321947,-10.9294 -0.699367,-2.59725 -0.960663,-23.43995 -0.774402,-61.77151 L 88.5,300.35193 91.195742,296.2794 c 6.662292,-10.06493 21.880068,-8.93594 26.840438,1.99126 1.80806,3.98297 1.92118,7.06917 1.94186,52.97934 L 120,400 h 136 136 v -48.78811 c 0,-48.60637 0.008,-48.80473 2.25,-53.25 2.40246,-4.76423 8.79419,-8.96189 13.64617,-8.96189 4.23167,0 10.8815,3.90564 13.31612,7.82095 L 423.5,300.5 v 60 c 0,59.92265 -0.003,60.00451 -2.18093,63.5 -1.19951,1.925 -3.67451,4.4 -5.5,5.5 -3.27788,1.97518 -5.24282,2.00206 -158.31907,2.16616 -92.88121,0.0996 -156.27635,-0.20569 -158.184765,-0.76169 z M 248.5,374.10016 c -1.65,-1.0408 -28.05027,-27.02662 -58.66727,-57.74626 -59.79664,-59.99711 -58.67694,-58.6769 -56.80491,-66.97726 0.46168,-2.04702 1.68878,-4.88168 2.72688,-6.29925 4.00558,-5.46973 13.248,-7.72276 19.04496,-4.64258 1.48519,0.78914 21.15034,19.91631 43.70034,42.50481 l 41,41.07001 0.5,-115.25481 c 0.49309,-113.662025 0.52813,-115.3027 2.53538,-118.719435 4.29972,-7.318937 14.41799,-9.699458 21.80967,-5.131149 7.6976,4.757376 7.09608,-4.974685 7.65495,123.850584 l 0.5,115.25481 41,-41.07001 c 22.55,-22.5885 42.21515,-41.71567 43.70034,-42.50481 8.28545,-4.40242 19.18088,0.8398 21.77598,10.47727 2.26448,8.40962 3.56487,6.86877 -57.30898,67.906 -30.89204,30.97494 -57.38249,56.96244 -58.86768,57.75 -3.80829,2.01944 -10.71468,1.79344 -14.29966,-0.46792 z"
         id="path2" />
    </g>
  </g>
</svg>
