<?xml version="1.0" encoding="UTF-8" standalone="no"?>
<!-- Created with Inkscape (http://www.inkscape.org/) -->

<svg
   version="1.1"
   id="svg1"
   width="512"
   height="512"
   viewBox="0 0 512 512"
   sodipodi:docname="exam.svg"
   inkscape:version="1.3 (0e150ed6c4, 2023-07-21)"
   xmlns:inkscape="http://www.inkscape.org/namespaces/inkscape"
   xmlns:sodipodi="http://sodipodi.sourceforge.net/DTD/sodipodi-0.dtd"
   xmlns="http://www.w3.org/2000/svg"
   xmlns:svg="http://www.w3.org/2000/svg">
  <defs
     id="defs1" />
  <sodipodi:namedview
     id="namedview1"
     pagecolor="#505050"
     bordercolor="#eeeeee"
     borderopacity="1"
     inkscape:showpageshadow="0"
     inkscape:pageopacity="0"
     inkscape:pagecheckerboard="0"
     inkscape:deskcolor="#505050"
     inkscape:zoom="1.5175781"
     inkscape:cx="256"
     inkscape:cy="256"
     inkscape:window-width="1920"
     inkscape:window-height="991"
     inkscape:window-x="-9"
     inkscape:window-y="-9"
     inkscape:window-maximized="1"
     inkscape:current-layer="g1" />
  <g
     inkscape:groupmode="layer"
     inkscape:label="Image"
     id="g1">
    <g
       id="g2"
       transform="translate(0.65894503,6.5894466)"
       style="fill:#1b1b1b;fill-opacity:1">
      <path
         style="fill:#1b1b1b;fill-opacity:1"
         d="m 75.844924,389.59304 c 9.177288,-0.16487 24.477286,-0.16516 33.999996,-6.5e-4 9.52272,0.16451 2.01402,0.2994 -16.685975,0.29976 -18.7,3.6e-4 -26.49131,-0.13424 -17.314021,-0.29911 z M 480.73789,247.75772 c 0.048,-1.16494 0.28494,-1.4019 0.60417,-0.60416 0.28887,0.72187 0.25334,1.58437 -0.079,1.91666 -0.33229,0.33229 -0.56864,-0.25833 -0.52522,-1.3125 z M 75.844924,120.59304 c 9.177288,-0.16487 24.477286,-0.16516 33.999996,-6.5e-4 9.52272,0.16451 2.01402,0.2994 -16.685975,0.29976 -18.7,3.6e-4 -26.49131,-0.13424 -17.314021,-0.29911 z"
         id="path7" />
      <path
         style="fill:#1b1b1b;fill-opacity:1"
         d="m 76.972456,306.59246 c 9.247432,-0.16518 24.097434,-0.16487 33.000004,6.9e-4 8.90256,0.16557 1.33648,0.30073 -16.813515,0.30035 -18.15,-3.8e-4 -25.43392,-0.13585 -16.186489,-0.30104 z m -1.127532,-19.99942 c 9.177288,-0.16487 24.477286,-0.16516 33.999996,-6.5e-4 9.52272,0.16451 2.01402,0.2994 -16.685975,0.29976 -18.7,3.6e-4 -26.49131,-0.13424 -17.314021,-0.29911 z m 0,-63 c 9.177288,-0.16487 24.477286,-0.16516 33.999996,-6.5e-4 9.52272,0.16451 2.01402,0.2994 -16.685975,0.29976 -18.7,3.6e-4 -26.49131,-0.13424 -17.314021,-0.29911 z m 1.127532,-20.00058 c 9.247432,-0.16518 24.097434,-0.16487 33.000004,6.9e-4 8.90256,0.16557 1.33648,0.30073 -16.813515,0.30035 -18.15,-3.8e-4 -25.43392,-0.13585 -16.186489,-0.30104 z"
         id="path6" />
      <path
         style="fill:#1b1b1b;fill-opacity:1"
         d="m 326.15894,395.34106 c 7.68527,-7.7 14.19821,-14 14.47321,-14 0.275,0 -5.78794,6.3 -13.47321,14 -7.68526,7.7 -14.1982,14 -14.4732,14 -0.275,0 5.78794,-6.3 13.4732,-14 z M 76.972456,369.59246 c 9.247432,-0.16518 24.097434,-0.16487 33.000004,6.9e-4 8.90256,0.16557 1.33648,0.30073 -16.813515,0.30035 -18.15,-3.8e-4 -25.43392,-0.13585 -16.186489,-0.30104 z m 335.686484,-60.7514 c 28.87108,-28.875 52.71786,-52.5 52.99286,-52.5 0.275,0 -23.12178,23.625 -51.99286,52.5 -28.87107,28.875 -52.71785,52.5 -52.99285,52.5 -0.275,0 23.12178,-23.625 51.99285,-52.5 z m -161.51705,-15.75 -10.98295,-11.25 11.25,10.98294 c 6.1875,6.04062 11.25,11.10312 11.25,11.25 0,0.72115 -1.31566,-0.5335 -11.51705,-10.98294 z m 192.99024,-58 -6.97319,-7.25 7.25,6.97318 c 3.9875,3.83525 7.25,7.09775 7.25,7.25 0,0.7335 -1.05012,-0.23938 -7.52681,-6.97318 z m 48.51292,-6 c 12.52772,-12.77287 14.01389,-14.20307 14.01389,-13.48611 0,0.14514 -6.1875,6.33264 -13.75,13.75 l -13.75,13.48611 z m -206.48611,-46.75 c 9.33787,-9.35 17.20294,-17 17.47794,-17 0.275,0 -7.14007,7.65 -16.47794,17 -9.33786,9.35 -17.20293,17 -17.47793,17 -0.275,0 7.14007,-7.65 16.47793,-17 z m 213.47112,-2.75 -6.47112,-6.75 6.75,6.47111 c 6.26969,6.01064 7.20713,7.02889 6.47112,7.02889 -0.15339,0 -3.19089,-3.0375 -6.75,-6.75 z M 76.972456,140.59246 c 9.247432,-0.16518 24.097434,-0.16487 33.000004,6.9e-4 8.90256,0.16557 1.33648,0.30073 -16.813515,0.30035 -18.15,-3.8e-4 -25.43392,-0.13585 -16.186489,-0.30104 z m 184.657604,-31.0014 -6.47112,-6.75 6.75,6.47111 c 6.26969,6.01064 7.20713,7.02889 6.47112,7.02889 -0.15339,0 -3.19089,-3.0375 -6.75,-6.75 z m 22.52888,-8.25 c 0.99549,-1.1 2.03498,-2.000005 2.30998,-2.000005 0.275,0 -0.31449,0.900005 -1.30998,2.000005 -0.99548,1.1 -2.03497,2 -2.30997,2 -0.275,0 0.31449,-0.9 1.30997,-2 z"
         id="path5" />
      <path
         style="fill:#1b1b1b;fill-opacity:1"
         d="m 375.15894,318.34106 c 41.79729,-41.8 76.22007,-76 76.49507,-76 0.275,0 -33.69778,34.2 -75.49507,76 -41.79728,41.8 -76.22006,76 -76.49506,76 -0.275,0 33.69778,-34.2 75.49506,-76 z m -78.5,-35.5 c 11.26494,-11.275 20.70671,-20.5 20.98171,-20.5 0.275,0 -8.71677,9.225 -19.98171,20.5 -11.26493,11.275 -20.7067,20.5 -20.9817,20.5 -0.275,0 8.71677,-9.225 19.9817,-20.5 z m -35.02888,-7.25 -6.47112,-6.75 6.75,6.47111 c 6.26969,6.01064 7.20713,7.02889 6.47112,7.02889 -0.15339,0 -3.19089,-3.0375 -6.75,-6.75 z m 24.52888,-10.25 c 9.33787,-9.35 17.20294,-17 17.47794,-17 0.275,0 -7.14007,7.65 -16.47794,17 -9.33786,9.35 -17.20293,17 -17.47793,17 -0.275,0 7.14007,-7.65 16.47793,-17 z m 171.97319,-44.25 -6.97319,-7.25 7.2565,6.97962 7.25649,6.97963 13.74351,-13.47963 13.7435,-13.47962 -13.4861,13.75 c -7.41736,7.5625 -13.72943,13.75 -14.02682,13.75 -0.29739,0 -3.67865,-3.2625 -7.51389,-7.25 z m -161.97319,-20.75 c 11.54018,-11.55 21.20714,-21 21.48214,-21 0.275,0 -8.94196,9.45 -20.48214,21 -11.54017,11.55 -21.20714,21 -21.48214,21 -0.275,0 8.94197,-9.45 20.48214,-21 z m -45.01876,9.75 -9.98124,-10.25 10.25,9.98123 c 9.52025,9.27062 10.70461,10.51877 9.98124,10.51877 -0.14782,0 -4.76032,-4.6125 -10.25,-10.25 z m 10.48988,-17.5 -6.47112,-6.75 6.75,6.47111 c 6.26969,6.01064 7.20713,7.02889 6.47112,7.02889 -0.15339,0 -3.19089,-3.0375 -6.75,-6.75 z m -9.98898,-65 -10.48214,-10.75 10.75,10.48213 c 5.9125,5.76517 10.75,10.60267 10.75,10.75 0,0.7222 -1.28183,-0.49731 -11.01786,-10.48213 z m 60.51786,-26.25 c 0.99549,-1.1 2.03498,-2.000005 2.30998,-2.000005 0.275,0 -0.31449,0.900005 -1.30998,2.000005 -0.99548,1.1 -2.03497,2 -2.30997,2 -0.275,0 0.31449,-0.9 1.30997,-2 z"
         id="path4" />
      <path
         style="fill:#1b1b1b;fill-opacity:1"
         d="m 286.15894,127.34106 c 5.47937,-5.5 10.18748,-10 10.46248,-10 0.275,0 -3.98311,4.5 -9.46248,10 -5.47936,5.5 -10.18747,10 -10.46247,10 -0.275,0 3.98311,-4.5 9.46247,-10 z"
         id="path3" />
      <path
         style="fill:#1b1b1b;fill-opacity:1"
         d="M 14.158945,483.8383 C 9.0989634,482.04838 3.1451109,475.75483 1.7464768,470.71764 0.20032096,465.14915 0.23262928,45.416868 1.7796427,39.844355 3.228126,34.626759 9.9446486,27.910237 15.162245,26.461753 c 5.665442,-1.572812 325.327955,-1.572812 330.993395,0 5.2176,1.448484 11.93412,8.165006 13.38261,13.382602 0.78335,2.82172 1.11118,38.244514 1.11512,120.490745 l 0.006,116.49405 31.34468,-31.33283 31.34468,-31.33283 -0.46474,-4.83661 c -0.40625,-4.22792 -0.13157,-5.16978 2.18256,-7.48391 2.25496,-2.25496 3.3829,-2.60826 7.61072,-2.38386 l 4.96341,0.26343 15.27806,-15.07988 c 15.97809,-15.77082 18.36584,-17.31327 26.74063,-17.27407 6.05016,0.0283 11.12251,3.30364 21.10026,13.62484 8.34089,8.62801 9.76245,10.60684 10.83672,15.08493 1.03879,4.33013 0.98813,6.00227 -0.31682,10.45845 -1.39413,4.7607 -3.08695,6.83319 -16.51944,20.22457 l -14.96614,14.92032 0.5654,4.77391 c 0.51949,4.38631 0.30652,5.0328 -2.62305,7.96237 -2.92826,2.92825 -3.57739,3.14238 -7.95447,2.62398 l -4.76602,-0.56446 -52.17822,52.18532 -52.17822,52.18531 -0.006,52.99646 c -0.004,35.73451 -0.36698,54.29827 -1.11512,56.99317 -1.44849,5.21759 -8.16501,11.93411 -13.38261,13.3826 -2.85451,0.79245 -50.29356,1.09859 -165.9967,1.07123 C 43.108015,485.25917 17.542918,485.03536 14.158945,483.8383 Z M 340.65894,423.10316 v -42.2379 l -15.25,15.14453 -15.25,15.14454 -24.5,9.76115 c -15.45506,6.15751 -25.78202,9.73341 -27.9726,9.68603 -4.13029,-0.0894 -9.0274,-4.84559 -9.0274,-8.76772 0,-1.36165 4.52833,-13.84205 10.06296,-27.73423 l 10.06295,-25.2585 35.93705,-36.00507 35.93704,-36.00507 V 171.08599 45.341055 h -160 -159.999995 v 210.000005 210 h 159.999995 160 z M 56.660092,429.5895 c -6.457341,-3.22686 -7.575185,-10.48163 -2.36871,-15.37286 l 2.528691,-2.37558 h 68.838867 68.83888 l 2.52869,2.37558 c 5.20647,4.89123 4.08863,12.146 -2.36871,15.37286 -3.22418,1.61119 -8.64083,1.74845 -68.99886,1.74845 -60.358023,0 -65.774667,-0.13726 -68.998848,-1.74845 z m -1.170125,-41.77797 c -3.823311,-2.07633 -5.352622,-7.28635 -3.464931,-11.80423 0.805526,-1.92789 2.373105,-3.99148 3.483509,-4.58575 1.337855,-0.716 14.03884,-1.08049 37.6504,-1.08049 23.611555,0 36.312545,0.36449 37.650395,1.08049 3.28634,1.75879 5.16527,7.43299 3.81556,11.52265 -2.07368,6.28333 -2.84812,6.40148 -41.666295,6.35682 -28.442901,-0.0327 -35.287195,-0.30481 -37.468638,-1.48949 z m 1.668978,-40.40168 c -6.374642,-2.65419 -8.058251,-10.96509 -3.204546,-15.81879 l 2.75,-2.75 h 68.954541 68.95455 l 2.75,2.75 c 3.83773,3.83772 3.83793,9.66188 4.7e-4,13.5 l -2.74953,2.75 -67.72774,0.20076 c -37.250261,0.11042 -68.627745,-0.17397 -69.727745,-0.63197 z m -2.198649,-42.84103 c -3.313506,-2.60385 -4.583208,-6.8437 -3.254837,-10.86871 2.123973,-6.4357 1.626919,-6.35905 41.241733,-6.35905 23.763248,0 36.523658,0.36415 37.862148,1.08049 3.24321,1.73571 5.16391,7.43711 3.84834,11.42335 -2.15133,6.51859 -2.02243,6.49858 -41.713552,6.47392 -32.369942,-0.0201 -35.995016,-0.18713 -37.983832,-1.75 z M 252.54011,293.68521 c -8.56758,-8.47724 -13.00176,-13.61671 -13.4299,-15.56605 -1.32325,-6.02473 3.62078,-11.7781 10.12126,-11.7781 1.99013,0 4.76305,2.04117 10.86793,8 4.50785,4.4 8.61092,8 9.11794,8 0.50702,0 9.13313,-8.20228 19.16913,-18.22728 17.59565,-17.57637 18.39056,-18.22727 22.25987,-18.22727 5.5989,0 9.46715,3.87948 9.46715,9.49463 0,3.94065 -0.57889,4.61749 -23.52044,27.5 -29.61767,29.54146 -26.01008,28.65669 -44.05294,10.80407 z M 57.158945,264.40642 c -6.372666,-2.64245 -8.05831,-10.9616 -3.204546,-15.81536 l 2.75,-2.75 h 68.954541 68.95455 l 2.75,2.75 c 3.83777,3.83777 3.83794,9.66191 3.8e-4,13.5 l -2.74962,2.75 -67.72765,0.19734 c -37.250211,0.10853 -68.627655,-0.17585 -69.727655,-0.63198 z m -1.843698,-42.1979 c -3.110125,-1.80787 -4.936247,-7.48919 -3.655033,-11.37131 2.149056,-6.5117 2.049728,-6.49615 41.498731,-6.49615 39.449005,0 39.349675,-0.0155 41.498735,6.49615 1.31557,3.98624 -0.60513,9.68764 -3.84834,11.42335 -2.77505,1.48517 -72.932806,1.4368 -75.494093,-0.052 z M 251.94985,210.05015 c -10.63091,-10.63091 -13.29091,-13.84304 -13.29091,-16.04966 0,-6.56996 5.71528,-11.53979 11.74715,-10.21497 1.73798,0.38172 5.81711,3.58999 10.29102,8.09396 4.07648,4.10387 7.8686,7.46158 8.42693,7.46158 0.55834,0 9.22643,-8.20228 19.26243,-18.22728 17.59565,-17.57637 18.39056,-18.22727 22.25987,-18.22727 5.5989,0 9.46715,3.87948 9.46715,9.49463 0,3.94065 -0.57889,4.61749 -23.52044,27.5 -29.7401,29.66357 -26.00046,28.81174 -44.6432,10.16901 z M 57.158945,181.43354 c -6.372721,-2.72889 -8.057844,-10.98919 -3.227273,-15.81976 6.072391,-6.07239 16.181818,-1.86959 16.181818,6.72728 0,6.58508 -7.127501,11.58771 -12.954545,9.09248 z m 44.999995,-0.0225 c -6.375333,-2.65832 -8.058225,-10.96631 -3.204541,-15.81999 l 2.750001,-2.75 h 46.45454 46.45455 l 2.75,2.75 c 3.83758,3.83758 3.83791,9.66179 7.5e-4,13.5 l -2.74925,2.75 -45.22802,0.20196 c -24.87542,0.11108 -46.12803,-0.1733 -47.22803,-0.63197 z M 55.315247,139.20852 c -3.152615,-1.83257 -4.937602,-7.48509 -3.622261,-11.47061 2.070077,-6.27239 2.876858,-6.39685 41.465959,-6.39685 38.589105,0 39.395885,0.12446 41.465955,6.39685 1.34971,4.08966 -0.52922,9.76386 -3.81556,11.52265 -2.77505,1.48517 -72.932806,1.4368 -75.494093,-0.052 z M 251.94985,127.05015 c -10.63091,-10.63091 -13.29091,-13.84304 -13.29091,-16.04966 0,-6.56996 5.71528,-11.539792 11.74715,-10.21497 1.73798,0.38172 5.81711,3.58999 10.29102,8.09396 4.07648,4.10387 7.87801,7.46158 8.44784,7.46158 0.56983,0 8.68109,-7.69594 18.02503,-17.102091 9.34393,-9.406147 18.4861,-17.751659 20.31594,-18.545582 2.9898,-1.297203 3.69923,-1.26152 7,0.352086 4.2731,2.088934 6.57584,6.18507 5.7053,10.148629 -0.413,1.880403 -8.14798,10.293908 -23.87042,25.964388 -29.4356,29.33833 -25.74665,28.51595 -44.37095,9.89166 z M 57.158945,98.406425 c -4.989454,-2.068903 -7.596054,-8.541075 -5.261943,-13.06537 0.709371,-1.375 2.858505,-3.2868 4.775854,-4.248446 3.212678,-1.611317 8.623194,-1.748446 68.986084,-1.748446 60.35803,0 65.77468,0.137259 68.99886,1.748446 6.45714,3.226762 7.57513,10.481277 2.36911,15.372864 l -2.52828,2.375582 -67.66984,0.19734 C 89.610373,99.146932 58.258945,98.862546 57.158945,98.406425 Z m 232.615635,299.924685 10.61564,-4.21642 75.87882,-75.88374 75.87882,-75.88374 -7.24754,-7.24754 -7.24755,-7.24754 -76.24691,76.25389 -76.24692,76.25389 -4.25,10.76147 c -4.62448,11.70971 -4.86929,12.68323 -3,11.9299 0.6875,-0.27706 6.02704,-2.40113 11.86564,-4.72017 z M 479.39554,215.10495 c 7.29487,-7.27986 13.2634,-13.68025 13.2634,-14.2231 0,-1.32626 -12.1642,-13.54079 -13.485,-13.54079 -0.57353,0 -7.10236,6.07207 -14.50851,13.4935 l -13.46574,13.49351 6.95281,7.00649 c 3.82404,3.85357 7.18384,7.0065 7.46622,7.0065 0.28238,0 6.48194,-5.95625 13.77682,-13.23611 z"
         id="path2" />
    </g>
  </g>
</svg>
