<?xml version="1.0" encoding="UTF-8" standalone="no"?>
<!-- Created with Inkscape (http://www.inkscape.org/) -->

<svg
   version="1.1"
   id="svg1"
   width="546.1333"
   height="546.1333"
   viewBox="0 0 546.1333 546.1333"
   sodipodi:docname="facebook.svg"
   inkscape:version="1.3 (0e150ed6c4, 2023-07-21)"
   xmlns:inkscape="http://www.inkscape.org/namespaces/inkscape"
   xmlns:sodipodi="http://sodipodi.sourceforge.net/DTD/sodipodi-0.dtd"
   xmlns="http://www.w3.org/2000/svg"
   xmlns:svg="http://www.w3.org/2000/svg">
  <defs
     id="defs1" />
  <sodipodi:namedview
     id="namedview1"
     pagecolor="#505050"
     bordercolor="#eeeeee"
     borderopacity="1"
     inkscape:showpageshadow="0"
     inkscape:pageopacity="0"
     inkscape:pagecheckerboard="0"
     inkscape:deskcolor="#505050"
     inkscape:zoom="1.4227296"
     inkscape:cx="273.06665"
     inkscape:cy="273.06665"
     inkscape:window-width="1920"
     inkscape:window-height="991"
     inkscape:window-x="-9"
     inkscape:window-y="-9"
     inkscape:window-maximized="1"
     inkscape:current-layer="g1" />
  <g
     inkscape:groupmode="layer"
     inkscape:label="Image"
     id="g1">
    <g
       id="g2"
       transform="translate(-0.70286997,4.2172457)"
       style="fill:#1b1b1b;fill-opacity:1">
      <path
         style="fill:#1b1b1b;fill-opacity:1"
         d="m 294.48419,208.44443 c 0.0512,-1.2426 0.30394,-1.49536 0.64445,-0.64444 0.30813,0.77 0.27023,1.69 -0.0842,2.04444 -0.35445,0.35445 -0.60655,-0.27555 -0.56024,-1.4 z m 28.18246,-60.17777 c 1.06185,-1.17334 2.17064,-2.13334 2.46397,-2.13334 0.29333,0 -0.33545,0.96 -1.39731,2.13334 -1.06185,1.17333 -2.17064,2.13333 -2.46397,2.13333 -0.29333,0 0.33546,-0.96 1.39731,-2.13333 z"
         id="path4" />
      <path
         style="fill:#1b1b1b;fill-opacity:1"
         d="m 57.399997,545.40465 c 0.77,-0.30813 1.689999,-0.27024 2.044444,0.0842 0.354444,0.35444 -0.275556,0.60655 -1.4,0.56023 -1.242606,-0.0512 -1.495359,-0.30394 -0.644444,-0.64444 z m 429.866643,0 c 0.77,-0.30813 1.69,-0.27024 2.04444,0.0842 0.35445,0.35444 -0.27555,0.60655 -1.4,0.56023 -1.2426,-0.0512 -1.49536,-0.30394 -0.64444,-0.64444 z M 0.08421052,487.91108 c 0.05118285,-1.2426 0.3039363,-1.49536 0.64444441,-0.64444 0.30812867,0.77 0.2702339,1.69 -0.0842105,2.04444 -0.35444443,0.35445 -0.60654968,-0.27555 -0.56023391,-1.4 z m 545.06662948,0 c 0.0512,-1.2426 0.30394,-1.49536 0.64445,-0.64444 0.30813,0.77 0.27023,1.69 -0.0842,2.04444 -0.35445,0.35445 -0.60655,-0.27555 -0.56024,-1.4 z M 294.5684,212.26665 c 0,-1.46666 0.24211,-2.06666 0.53802,-1.33333 0.2959,0.73333 0.2959,1.93333 0,2.66667 -0.29591,0.73333 -0.53802,0.13333 -0.53802,-1.33334 z m 90.23158,-92.43976 c 0.73333,-0.2959 1.93333,-0.2959 2.66666,0 0.73334,0.29591 0.13334,0.53802 -1.33333,0.53802 -1.46667,0 -2.06667,-0.24211 -1.33333,-0.53802 z M 0.08421052,58.044441 c 0.05118285,-1.242606 0.3039363,-1.495359 0.64444441,-0.644444 0.30812867,0.77 0.2702339,1.689999 -0.0842105,2.044444 C 0.29,59.798885 0.03789475,59.168885 0.08421052,58.044441 Z m 545.06662948,0 c 0.0512,-1.242606 0.30394,-1.495359 0.64445,-0.644444 0.30813,0.77 0.27023,1.689999 -0.0842,2.044444 -0.35445,0.354444 -0.60655,-0.275556 -0.56024,-1.4 z M 57.399997,0.33801168 c 0.77,-0.30812864 1.689999,-0.27023391 2.044444,0.0842105 0.354444,0.35444442 -0.275556,0.60654972 -1.4,0.56023388 -1.242606,-0.0511828 -1.495359,-0.3039363 -0.644444,-0.64444438 z m 429.866643,0 c 0.77,-0.30812864 1.69,-0.27023391 2.04444,0.0842105 0.35445,0.35444442 -0.27555,0.60654972 -1.4,0.56023388 -1.2426,-0.0511828 -1.49536,-0.3039363 -0.64444,-0.64444438 z"
         id="path3" />
      <path
         style="fill:#1b1b1b;fill-opacity:1"
         d="M 54.828913,545.07989 C 30.314979,541.44013 10.118692,523.52847 2.4956717,498.66664 0.61746,492.54101 0.5333333,482.86939 0.5333333,273.06665 0.5333333,63.263907 0.61746,53.592291 2.4956717,47.466664 9.2839858,25.327155 25.327155,9.2839858 47.466664,2.4956717 53.592291,0.61746 63.263907,0.5333333 273.06665,0.5333333 c 209.80274,0 219.47436,0.0841267 225.59999,1.9623384 22.13951,6.7883141 38.18267,22.8314833 44.97099,44.9709923 1.87821,6.125627 1.96234,15.797243 1.96234,225.599986 0,209.80274 -0.0841,219.47436 -1.96234,225.59999 -6.70696,21.87416 -22.12314,37.47291 -44.43766,44.96389 -5.62151,1.88714 -14.91499,1.97544 -222.39999,2.11309 -119.09332,0.079 -218.980304,-0.21967 -221.971067,-0.66373 z M 294.39998,416.53331 v -86.93333 h -32 -31.99999 v -33.06666 -33.06667 h 31.99999 32 v -22.28698 c 0,-26.90506 1.33803,-41.1804 4.94429,-52.75017 10.42165,-33.43531 37.83232,-58.53689 72.52881,-66.41896 5.18482,-1.17784 15.66885,-1.83183 35.86023,-2.23695 l 28.53333,-0.57248 v 33.19944 33.19944 h -25.02665 c -29.38373,0 -32.98538,0.80501 -41.44352,9.26316 -8.51782,8.51781 -9.26316,11.93723 -9.26316,42.49688 v 26.08001 l 38.15549,0.27997 38.15549,0.27997 -5.30002,32.8 -5.30002,32.8 h -32.85547 -32.85547 v 86.93333 86.93333 h 62.96759 c 54.42115,0 63.50388,-0.22408 66.91877,-1.65091 5.2709,-2.20232 8.64772,-5.45205 11.03092,-10.61576 1.89347,-4.1026 1.9701,-12.48161 1.99262,-217.90091 0.0209,-190.446899 -0.15576,-214.063102 -1.62748,-217.585433 -2.20232,-5.270892 -5.45205,-8.647712 -10.61576,-11.030917 -4.10319,-1.893746 -12.46073,-1.969194 -218.13332,-1.969194 -205.672584,0 -214.030126,0.07545 -218.13332,1.969194 -5.163707,2.383205 -8.413437,5.760025 -10.615756,11.030917 -1.471434,3.521638 -1.65091,27.150761 -1.65091,217.353023 0,190.20226 0.179476,213.83139 1.65091,217.35302 2.202319,5.2709 5.452049,8.64772 10.615756,11.03092 4.065411,1.87631 9.813783,1.9703 121.86666,1.99262 l 117.59999,0.0234 z"
         id="path2" />
    </g>
  </g>
</svg>
