<?xml version="1.0" encoding="UTF-8" standalone="no"?>
<!-- Created with Inkscape (http://www.inkscape.org/) -->

<svg
   version="1.1"
   id="svg1"
   width="512"
   height="512"
   viewBox="0 0 512 512"
   sodipodi:docname="graduacion.svg"
   inkscape:version="1.3 (0e150ed6c4, 2023-07-21)"
   xmlns:inkscape="http://www.inkscape.org/namespaces/inkscape"
   xmlns:sodipodi="http://sodipodi.sourceforge.net/DTD/sodipodi-0.dtd"
   xmlns="http://www.w3.org/2000/svg"
   xmlns:svg="http://www.w3.org/2000/svg">
  <defs
     id="defs1" />
  <sodipodi:namedview
     id="namedview1"
     pagecolor="#505050"
     bordercolor="#eeeeee"
     borderopacity="1"
     inkscape:showpageshadow="0"
     inkscape:pageopacity="0"
     inkscape:pagecheckerboard="0"
     inkscape:deskcolor="#505050"
     inkscape:zoom="1.5175781"
     inkscape:cx="256"
     inkscape:cy="256"
     inkscape:window-width="1920"
     inkscape:window-height="991"
     inkscape:window-x="-9"
     inkscape:window-y="-9"
     inkscape:window-maximized="1"
     inkscape:current-layer="g1" />
  <g
     inkscape:groupmode="layer"
     inkscape:label="Image"
     id="g1">
    <g
       id="g2"
       transform="translate(-1.9768335)"
       style="fill:#1b1b1b;fill-opacity:1">
      <path
         style="fill:#1b1b1b;fill-opacity:1"
         d="m 277.45365,464.5 c -2.9e-4,-20.9 0.13234,-29.59212 0.29473,-19.31582 0.1624,10.2763 0.16264,27.3763 5.4e-4,38 -0.1621,10.6237 -0.29497,2.21582 -0.29527,-18.68418 z m 128.00483,-90 c 2.3e-4,-23.65 0.13103,-33.18206 0.29066,-21.18235 0.15964,11.99971 0.15944,31.34971 -4.3e-4,43 -0.15986,11.65029 -0.29047,1.83235 -0.29023,-21.81765 z m -128.08441,20 c 0.002,-6.05 0.16696,-8.39607 0.36601,-5.21349 0.19905,3.18258 0.1972,8.13258 -0.004,11 -0.20131,2.86742 -0.36417,0.26349 -0.36191,-5.78651 z M 127.30435,362.25324 c 5.94239,-0.17711 15.39239,-0.17644 21,10e-4 5.60761,0.17792 0.74565,0.32282 -10.80435,0.322 -11.55,-8.2e-4 -16.13804,-0.14638 -10.19565,-0.32348 z m 60.51578,-0.003 c 14.47608,-0.15624 37.87608,-0.1561 52,3.1e-4 14.12393,0.15641 2.27987,0.28425 -26.32013,0.28408 -28.6,-1.7e-4 -40.15594,-0.12814 -25.67987,-0.28439 z m 90.42987,0.003 c 5.9125,-0.1768 15.5875,-0.1768 21.5,0 5.9125,0.17679 1.075,0.32145 -10.75,0.32145 -11.825,0 -16.6625,-0.14466 -10.75,-0.32145 z M 51.5,351 c 0.995486,-1.1 2.034975,-2 2.309975,-2 0.275,0 -0.314489,0.9 -1.309975,2 -0.995486,1.1 -2.034975,2 -2.309975,2 -0.275,0 0.314489,-0.9 1.309975,-2 z m 98.25,-9.74991 c 43.0375,-0.14425 113.4625,-0.14425 156.5,0 43.0375,0.14425 7.825,0.26228 -78.25,0.26228 -86.075,0 -121.2875,-0.11803 -78.25,-0.26228 z M 405.44614,297.5 c 4e-4,-17.6 0.13647,-24.65916 0.30237,-15.68703 0.1659,8.97214 0.16557,23.37214 -7.3e-4,32 -0.1663,8.62787 -0.30204,1.28703 -0.30164,-16.31297 z M 339.75,213.33772 c 0.6875,-0.27741 1.8125,-0.27741 2.5,0 0.6875,0.27741 0.125,0.50439 -1.25,0.50439 -1.375,0 -1.9375,-0.22698 -1.25,-0.50439 z M 234.44306,130.5 c -4.5e-4,-16.5 0.13655,-23.39031 0.30444,-15.31181 0.16789,8.07851 0.16826,21.57851 8.2e-4,30 -0.16745,8.4215 -0.30481,1.81181 -0.30526,-14.68819 z m 191.99049,5 c -6.1e-4,-13.75 0.14023,-19.5137 0.31298,-12.80822 0.17275,6.70549 0.17325,17.95549 10e-4,25 C 426.5755,154.7363 426.43416,149.25 426.43355,135.5 Z M 51.5,31 c 0.995486,-1.1 2.034975,-2 2.309975,-2 0.275,0 -0.314489,0.9 -1.309975,2 -0.995486,1.1 -2.034975,2 -2.309975,2 -0.275,0 0.314489,-0.9 1.309975,-2 z m 53.32274,-9.749624 c 18.32751,-0.152635 48.02751,-0.152546 66,1.97e-4 C 188.79523,21.403317 173.8,21.5282 137.5,21.528092 101.2,21.527983 86.495233,21.403011 104.82274,21.250376 Z"
         id="path6" />
      <path
         style="fill:#1b1b1b;fill-opacity:1"
         d="m 70.75,426.33772 c 0.6875,-0.27741 1.8125,-0.27741 2.5,0 0.6875,0.27741 0.125,0.50439 -1.25,0.50439 -1.375,0 -1.9375,-0.22698 -1.25,-0.50439 z m 88,-64 c 0.6875,-0.27741 1.8125,-0.27741 2.5,0 0.6875,0.27741 0.125,0.50439 -1.25,0.50439 -1.375,0 -1.9375,-0.22698 -1.25,-0.50439 z m 107.0625,-0.0208 c 0.72187,-0.28887 1.58438,-0.25335 1.91667,0.0789 0.33229,0.33229 -0.25834,0.56864 -1.3125,0.52522 -1.16495,-0.048 -1.4019,-0.28494 -0.60417,-0.60416 z M 405.07895,330.4167 c 0.048,-1.16495 0.28494,-1.4019 0.60416,-0.60417 0.28887,0.72187 0.25335,1.58438 -0.0789,1.91667 -0.33229,0.33229 -0.56864,-0.25834 -0.52522,-1.3125 z M 21.078947,50.416667 c 0.04798,-1.164943 0.284941,-1.4019 0.604167,-0.604167 0.288871,0.721875 0.253344,1.584375 -0.07895,1.916667 -0.332292,0.332291 -0.568641,-0.258334 -0.52522,-1.3125 z"
         id="path5" />
      <path
         style="fill:#1b1b1b;fill-opacity:1"
         d="M 149.23729,464.76203 149,427.02405 l -37.75,-0.27442 -37.75,-0.27441 37.78138,-0.23761 c 29.54282,-0.1858 37.88632,0.0358 38.26258,1.01635 0.26465,0.68967 0.35731,17.90217 0.20591,38.25 L 149.47459,502.5 Z M 170.44388,449 c 0,-16.775 0.13684,-23.6375 0.3041,-15.25 0.16726,8.3875 0.16726,22.1125 0,30.5 -0.16726,8.3875 -0.3041,1.525 -0.3041,-15.25 z m 136.8777,-22.74953 c 16.40187,-0.15425 42.95187,-0.15414 59,2.4e-4 16.04813,0.15438 2.62842,0.28058 -29.82158,0.28045 -32.45,-1.4e-4 -45.58029,-0.12645 -29.17842,-0.28069 z M 170.39994,398.5 c 0.001,-8.25 0.15629,-11.49193 0.34419,-7.20429 0.1879,4.28763 0.18676,11.03763 -0.003,15 -0.1893,3.96236 -0.34304,0.45429 -0.34164,-7.79571 z m -59.18365,6.75653 37.71629,-0.28051 0.33699,-10.49001 0.33698,-10.49 -0.0533,10.75199 -0.0533,10.752 -38,0.0185 -38,0.0185 z m 193.03371,-0.006 c 14.7125,-0.15586 38.7875,-0.15586 53.5,0 14.7125,0.15585 2.675,0.28337 -26.75,0.28337 -29.425,0 -41.4625,-0.12752 -26.75,-0.28337 z M 21.48771,209 c 0,-86.625 0.117991,-122.0625 0.262203,-78.75 0.144211,43.3125 0.144211,114.1875 0,157.5 -0.144212,43.3125 -0.262203,7.875 -0.262203,-78.75 z m 20.998471,-18 c 0,-76.725 0.118669,-108.1125 0.263708,-69.75 0.14504,38.3625 0.14504,101.1375 0,139.5 -0.145039,38.3625 -0.263708,6.975 -0.263708,-69.75 z"
         id="path4" />
      <path
         style="fill:#1b1b1b;fill-opacity:1"
         d="m 36,16.622445 c 0,-0.207656 0.7875,-0.995156 1.75,-1.75 C 39.336056,13.628574 39.371426,13.663944 38.127555,15.25 36.821186,16.915748 36,17.445479 36,16.622445 Z"
         id="path3" />
      <path
         style="fill:#1b1b1b;fill-opacity:1"
         d="m 155.5005,510.4237 c -1.64972,-0.86019 -3.44972,-2.31992 -4,-3.24384 C 150.90249,506.17578 150.29886,489.60977 150,466 L 149.5,426.5 106,426 C 63.035401,425.50615 62.426152,425.47056 56.5,423.10798 40.430087,416.7014 29.881261,405.62524 24.455189,389.46125 l -2.543116,-7.57581 0.06472,-168.28921 C 22.038016,54.390895 22.139193,44.954743 23.851212,38.780671 26.210823,30.27118 30.002283,23.909283 37.187967,16.402207 43.29086,10.026352 48.986118,6.4079229 58.707292,2.7301073 64.438591,0.5617826 65.242073,0.53546743 134.5,0.24778836 c 68.76794,-0.28564379 70.05764,-0.25517345 73.27493,1.73118484 5.85735,3.616343 6.84898,10.1716278 2.3077,15.2552498 L 207.16525,20.5 136.83263,21 66.5,21.5 60.839456,24.279782 C 54.050905,27.613507 48.707064,33.262208 45.135165,40.879989 L 42.5,46.5 l -0.269961,142.26981 -0.26996,142.26982 5.331152,-3.00872 c 2.932134,-1.65479 8.003616,-4.02621 11.269961,-5.26981 L 64.5,320.5 224.25,320.22925 384,319.95849 l 0.002,-27.22924 c 0.002,-31.53225 0.34484,-33.13897 7.61156,-35.65125 3.77823,-1.30623 4.38867,-1.26106 7.49775,0.55474 1.86156,1.08721 3.94153,3.07711 4.62216,4.422 0.95097,1.87909 1.24091,20.22732 1.25224,79.24492 0.0158,82.4029 0.0997,80.97894 -4.92987,83.6707 C 398.79661,425.64404 377.19305,426 337.56574,426 H 277 v 39.42327 39.42328 l -2.48042,2.94781 c -2.83796,3.37273 -7.29959,4.61998 -11.20922,3.13354 -2.19363,-0.83402 -20.52911,-15.05162 -45.84012,-35.54512 l -4.02976,-3.26276 -23.97024,19.05563 c -13.18363,10.48061 -25.01203,19.4536 -26.28534,19.94 -3.17043,1.21108 -4.21504,1.11702 -7.6844,-0.69195 z m 34.36664,-46.29325 c 10.24807,-8.17826 19.60709,-15.17143 20.79782,-15.5404 4.16702,-1.29121 7.77439,0.81017 25.23756,14.70152 9.67861,7.69901 18.15998,14.4381 18.84748,14.97576 0.99619,0.77906 1.25,-8.69223 1.25,-46.64489 V 384 H 213.04965 170.0993 l -0.0486,47.5 c -0.0267,26.125 0.22864,47.5 0.56749,47.5 0.33885,0 9.00088,-6.6913 19.24895,-14.86955 z M 149.78383,394.75 150.06766,384 h -17.08349 c -13.20045,0 -17.7403,-0.33965 -19.97313,-1.49429 C 106.09759,378.93062 104.94973,371.85027 110.4,366.4 l 3.4,-3.4 h 99.67692 99.67693 l 2.87186,2.87187 c 3.75442,3.75441 4.47869,6.98517 2.58304,11.52209 C 316.20519,383.1465 312.9653,384 293.53212,384 H 277 v 11 11 H 330.5 384 V 373.4879 340.9758 L 225.25,341.2379 66.5,341.5 l -4.622405,2.13733 c -6.724676,3.10938 -12.381395,8.68207 -15.841312,15.60598 -2.635036,5.27317 -3.034992,7.14527 -3.026514,14.16641 0.0078,6.43146 0.502788,9.14916 2.414281,13.25456 4.255907,9.14061 13.336069,16.39063 22.919696,18.30014 2.28594,0.45547 21.481254,0.7623 42.656254,0.68185 L 149.5,405.5 Z M 320,211.55959 c -19.96859,-2.89002 -37.64942,-8.74957 -58.28588,-19.31634 -14.48853,-7.41876 -19.71025,-11.87041 -23.56276,-20.08787 L 235.5,166.5 235,133.61664 234.5,100.73328 215.77224,92.116639 c -10.30026,-4.739152 -19.74004,-9.631412 -20.97727,-10.87169 -2.7209,-2.72759 -3.02746,-8.714983 -0.63331,-12.368915 1.20431,-1.838019 20.00465,-10.95359 73.77101,-35.768764 C 326.58244,6.0382195 340.594,-0.07146801 342.79374,0.46439905 345.53347,1.131812 480.24761,62.942512 485.16479,65.788308 c 4.845,2.804022 6.51022,10.9601 3.08521,15.111035 -0.9625,1.166501 -10.3,6.110928 -20.75,10.987615 l -19,8.866702 -0.55089,32.37317 c -0.62512,36.73493 -0.90266,38.26848 -8.44398,46.65624 -6.92389,7.70104 -31.80514,20.35002 -51.6621,26.26368 -20.3983,6.07488 -48.2962,8.34183 -67.84303,5.51284 z m 54,-23.3014 c 14.27812,-3.71797 22.2102,-6.81417 37.3976,-14.59773 8.54579,-4.37973 12.41841,-6.95157 13.74626,-9.129 1.66908,-2.73697 1.84903,-5.48434 1.8524,-28.28146 0.002,-13.8875 -0.18787,-25.25 -0.42205,-25.25 -0.23419,0 -18.56802,8.37095 -40.74184,18.60212 -22.17382,10.23116 -41.68329,18.82398 -43.35437,19.09516 -2.42261,0.39314 -11.23953,-3.2956 -43.50816,-18.20251 C 276.71143,120.21222 257.9375,111.57125 257.25,111.29262 256.26904,110.89506 256,116.38856 256,136.81629 v 26.03026 l 2.42904,2.88675 c 3.34862,3.97961 24.51149,14.36009 39.07096,19.16447 18.10719,5.97508 25.94625,7.09164 47,6.69451 16.11941,-0.30406 19.20149,-0.65239 29.5,-3.33409 z m 24,-87.10272 C 428.525,87.016905 453.32074,75.010465 453.10165,74.474493 452.68013,73.443339 341.90687,21.991765 341.01901,22.414741 c -0.28546,0.13599 -25.86227,11.910805 -56.83736,26.166256 -36.45468,16.777282 -55.85337,26.202355 -55,26.722375 2.90994,1.773247 111.38842,51.579798 112.31835,51.569578 0.55,-0.006 25.975,-11.57891 56.5,-25.71748 z"
         id="path2" />
    </g>
  </g>
</svg>
