<?xml version="1.0" encoding="UTF-8" standalone="no"?>
<!-- Created with Inkscape (http://www.inkscape.org/) -->

<svg
   version="1.1"
   id="svg1"
   width="682.66669"
   height="682.66669"
   viewBox="0 0 682.66669 682.66669"
   sodipodi:docname="instagram.svg"
   inkscape:version="1.3 (0e150ed6c4, 2023-07-21)"
   xmlns:inkscape="http://www.inkscape.org/namespaces/inkscape"
   xmlns:sodipodi="http://sodipodi.sourceforge.net/DTD/sodipodi-0.dtd"
   xmlns="http://www.w3.org/2000/svg"
   xmlns:svg="http://www.w3.org/2000/svg">
  <defs
     id="defs1" />
  <sodipodi:namedview
     id="namedview1"
     pagecolor="#505050"
     bordercolor="#eeeeee"
     borderopacity="1"
     inkscape:showpageshadow="0"
     inkscape:pageopacity="0"
     inkscape:pagecheckerboard="0"
     inkscape:deskcolor="#505050"
     inkscape:zoom="1.1381836"
     inkscape:cx="341.33334"
     inkscape:cy="341.33334"
     inkscape:window-width="1920"
     inkscape:window-height="991"
     inkscape:window-x="-9"
     inkscape:window-y="-9"
     inkscape:window-maximized="1"
     inkscape:current-layer="g1" />
  <g
     inkscape:groupmode="layer"
     inkscape:label="Image"
     id="g1">
    <g
       id="g2"
       transform="translate(-1.7571859,11.421708)"
       style="fill:#1b1b1b;fill-opacity:1">
      <path
         style="fill:#1b1b1b;fill-opacity:1"
         d="m 230.41667,681.75587 c 0.9625,-0.38516 2.1125,-0.33779 2.55556,0.10526 0.44305,0.44306 -0.34445,0.75819 -1.75,0.70029 -1.55326,-0.064 -1.8692,-0.37992 -0.80556,-0.80555 z m 222.66668,0 c 0.9625,-0.38516 2.1125,-0.33779 2.55555,0.10526 0.44306,0.44306 -0.34444,0.75819 -1.75,0.70029 -1.55325,-0.064 -1.8692,-0.37992 -0.80555,-0.80555 z M 251.66667,620.45031 c 0.91667,-0.36988 2.41667,-0.36988 3.33334,0 0.91666,0.36988 0.16666,0.67252 -1.66667,0.67252 -1.83333,0 -2.58333,-0.30264 -1.66667,-0.67252 z m 178.66668,0 c 0.91666,-0.36988 2.41666,-0.36988 3.33333,0 0.91667,0.36988 0.16667,0.67252 -1.66667,0.67252 -1.83333,0 -2.58333,-0.30264 -1.66666,-0.67252 z M 621.7147,416.66668 c 0.01,-3.66667 0.26895,-5.00842 0.57543,-2.98167 0.30647,2.02675 0.29828,5.02675 -0.0182,6.66667 -0.31649,1.63992 -0.56724,-0.0183 -0.55723,-3.685 z M 63.261524,342.00001 c 5.34e-4,-23.46667 0.181953,-32.87888 0.403155,-20.91603 0.221202,11.96284 0.220765,31.16284 -9.7e-4,42.66666 -0.221736,11.50382 -0.402719,1.71604 -0.402185,-21.75063 z M 517.43861,333.8889 c 0.064,-1.55326 0.37992,-1.8692 0.80556,-0.80556 0.38516,0.9625 0.33779,2.1125 -0.10527,2.55556 -0.44305,0.44305 -0.75818,-0.34445 -0.70029,-1.75 z M 621.7329,266.66667 c 0,-4.03333 0.24996,-5.68333 0.55546,-3.66666 0.3055,2.01666 0.3055,5.31666 0,7.33333 -0.3055,2.01667 -0.55546,0.36667 -0.55546,-3.66667 z M 1.4385965,225.8889 c 0.063979,-1.55326 0.3799204,-1.8692 0.8055556,-0.80556 0.3851608,0.9625 0.3377924,2.1125 -0.1052631,2.55556 -0.4430556,0.44305 -0.7581872,-0.34445 -0.7002925,-1.75 z M 469.16327,220.33334 c -1.65849,-2.11474 -1.61133,-2.1619 0.50341,-0.50341 1.28333,1.00646 2.33333,2.05646 2.33333,2.33334 0,1.09738 -1.09491,0.39107 -2.83674,-1.82993 z M 349.08334,165.75585 c 0.9625,-0.38516 2.1125,-0.33779 2.55556,0.10527 0.44305,0.44305 -0.34445,0.75818 -1.75,0.70029 -1.55326,-0.064 -1.8692,-0.37992 -0.80556,-0.80556 z M 101.33334,102 c 2.48771,-2.566664 4.82311,-4.666664 5.18977,-4.666664 0.36667,0 -1.36873,2.1 -3.85644,4.666664 -2.48771,2.56667 -4.823112,4.66667 -5.189779,4.66667 -0.366666,0 1.368734,-2.1 3.856449,-4.66667 z m 127.75,-101.57748537 c 0.9625,-0.38516083 2.1125,-0.33779241 2.55556,0.10526316 0.44305,0.44305557 -0.34445,0.75818721 -1.75,0.70029241 -1.55326,-0.063979 -1.8692,-0.3799204 -0.80556,-0.80555557 z m 222.66667,0 c 0.9625,-0.38516083 2.1125,-0.33779241 2.55556,0.10526316 0.44305,0.44305557 -0.34445,0.75818721 -1.75,0.70029241 -1.55326,-0.063979 -1.8692,-0.3799204 -0.80556,-0.80555557 z"
         id="path8" />
      <path
         style="fill:#1b1b1b;fill-opacity:1"
         d="m 234.41667,681.75587 c 0.9625,-0.38516 2.1125,-0.33779 2.55556,0.10526 0.44305,0.44306 -0.34445,0.75819 -1.75,0.70029 -1.55326,-0.064 -1.8692,-0.37992 -0.80556,-0.80555 z m 214.66668,0 c 0.9625,-0.38516 2.1125,-0.33779 2.55555,0.10526 0.44306,0.44306 -0.34444,0.75819 -1.75,0.70029 -1.55326,-0.064 -1.8692,-0.37992 -0.80555,-0.80555 z m 174.91667,-54.25926 c 0,-0.27687 1.05,-1.32687 2.33333,-2.33333 2.11474,-1.6585 2.1619,-1.61134 0.50341,0.50341 -1.74183,2.22099 -2.83674,2.9273 -2.83674,1.82992 z m -376.25001,-7.07408 c 0.9625,-0.38516 2.1125,-0.33779 2.55555,0.10527 0.44306,0.44305 -0.34444,0.75818 -1.75,0.70029 -1.55325,-0.064 -1.8692,-0.37992 -0.80555,-0.80556 z m 188,0 c 0.9625,-0.38516 2.1125,-0.33779 2.55556,0.10527 0.44305,0.44305 -0.34445,0.75818 -1.75,0.70029 -1.55326,-0.064 -1.8692,-0.37992 -0.80556,-0.80556 z M 620.10528,472.55557 c 0.064,-1.55326 0.37992,-1.8692 0.80556,-0.80556 0.38516,0.9625 0.33779,2.1125 -0.10527,2.55556 -0.44305,0.44306 -0.75818,-0.34444 -0.70029,-1.75 z M 213.16327,460.33335 c -1.6585,-2.11474 -1.61134,-2.1619 0.5034,-0.50341 2.221,1.74183 2.92731,2.83674 1.82993,2.83674 -0.27687,0 -1.32687,-1.05 -2.33333,-2.33333 z M 1.5438597,454.66668 c 0,-1.83333 0.3026316,-2.58333 0.6725146,-1.66667 0.3698831,0.91667 0.3698831,2.41667 0,3.33334 -0.369883,0.91666 -0.6725146,0.16666 -0.6725146,-1.66667 z M 621.6965,428.00001 c 0,-3.3 0.26003,-4.65 0.57783,-3 0.3178,1.65 0.3178,4.35 0,6 -0.3178,1.65 -0.57783,0.3 -0.57783,-3 z m -558.549169,-32 c 0,-6.96667 0.224725,-9.81667 0.49939,-6.33333 0.274665,3.48333 0.274665,9.18333 0,12.66667 -0.274665,3.48333 -0.49939,0.63333 -0.49939,-6.33334 z M 517.54388,345.33334 c 0,-1.83333 0.30263,-2.58333 0.67251,-1.66666 0.36988,0.91666 0.36988,2.41666 0,3.33333 -0.36988,0.91667 -0.67251,0.16667 -0.67251,-1.66667 z m -0.10527,-7.44444 c 0.064,-1.55326 0.37992,-1.8692 0.80556,-0.80556 0.38516,0.9625 0.33779,2.1125 -0.10527,2.55556 -0.44305,0.44305 -0.75818,-0.34445 -0.70029,-1.75 z M 63.147331,288.00001 c 0,-6.96667 0.224725,-9.81667 0.49939,-6.33333 0.274665,3.48333 0.274665,9.18333 0,12.66666 -0.274665,3.48334 -0.49939,0.63334 -0.49939,-6.33333 z M 621.6696,255.33334 c 0.0148,-2.93333 0.28784,-3.97634 0.60677,-2.31779 0.31892,1.65855 0.30681,4.05855 -0.0269,5.33334 -0.33372,1.27478 -0.59466,-0.0822 -0.57986,-3.01555 z M 1.4385965,229.8889 c 0.063979,-1.55326 0.3799204,-1.8692 0.8055556,-0.80556 0.3851608,0.9625 0.3377924,2.1125 -0.1052631,2.55556 -0.4430556,0.44305 -0.7581872,-0.34445 -0.7002925,-1.75 z M 337.08334,165.75585 c 0.9625,-0.38516 2.1125,-0.33779 2.55556,0.10527 0.44305,0.44305 -0.34445,0.75818 -1.75,0.70029 -1.55326,-0.064 -1.8692,-0.37992 -0.80556,-0.80556 z m 8,0 c 0.9625,-0.38516 2.1125,-0.33779 2.55556,0.10527 0.44305,0.44305 -0.34445,0.75818 -1.75,0.70029 -1.55326,-0.064 -1.8692,-0.37992 -0.80556,-0.80556 z M 622.49661,53.666668 c -1.65849,-2.114741 -1.61133,-2.161901 0.50341,-0.503407 2.221,1.741827 2.9273,2.836741 1.82992,2.836741 -0.27687,0 -1.32687,-1.05 -2.33333,-2.333334 z M 233.00001,0.45029241 c 0.91666,-0.36988305 2.41666,-0.36988305 3.33333,0 0.91667,0.36988305 0.16667,0.67251469 -1.66667,0.67251469 -1.83333,0 -2.58333,-0.30263164 -1.66666,-0.67251469 z m 214.75,-0.0277778 c 0.9625,-0.38516083 2.1125,-0.33779241 2.55556,0.10526316 0.44305,0.44305557 -0.34445,0.75818723 -1.75,0.70029243 -1.55326,-0.063979 -1.8692,-0.37992042 -0.80556,-0.80555559 z"
         id="path7" />
      <path
         style="fill:#1b1b1b;fill-opacity:1"
         d="m 238.33334,681.78365 c 0.91667,-0.36989 2.41667,-0.36989 3.33333,0 0.91667,0.36988 0.16667,0.67251 -1.66666,0.67251 -1.83334,0 -2.58334,-0.30263 -1.66667,-0.67251 z m 204.69205,-0.0409 c 1.29729,-0.33806 3.09729,-0.31583 4,0.0494 0.90271,0.36524 -0.15871,0.64183 -2.35871,0.61466 -2.2,-0.0272 -2.93858,-0.326 -1.64129,-0.66406 z m -241.94205,-1.32017 c 0.9625,-0.38516 2.1125,-0.33779 2.55555,0.10527 0.44306,0.44305 -0.34444,0.75819 -1.75,0.70029 -1.55325,-0.064 -1.86919,-0.37992 -0.80555,-0.80556 z m 40.60871,-60.01317 c 1.29729,-0.33805 3.09729,-0.31582 4,0.0494 0.90271,0.36523 -0.15871,0.64182 -2.35871,0.61465 -2.2,-0.0272 -2.93858,-0.326 -1.64129,-0.66406 z m 198.66667,0 c 1.29729,-0.33805 3.09729,-0.31582 4,0.0494 0.90271,0.36523 -0.15871,0.64182 -2.35871,0.61465 -2.2,-0.0272 -2.93858,-0.326 -1.64129,-0.66406 z M 337.00001,516.45031 c 0.91667,-0.36989 2.41667,-0.36989 3.33333,0 0.91667,0.36988 0.16667,0.67251 -1.66666,0.67251 -1.83334,0 -2.58334,-0.30263 -1.66667,-0.67251 z m 8,0 c 0.91667,-0.36989 2.41667,-0.36989 3.33333,0 0.91667,0.36988 0.16667,0.67251 -1.66666,0.67251 -1.83334,0 -2.58334,-0.30263 -1.66667,-0.67251 z M 1.4385965,449.8889 c 0.063979,-1.55326 0.3799204,-1.8692 0.8055556,-0.80555 0.3851608,0.9625 0.3377924,2.1125 -0.1052631,2.55555 -0.4430556,0.44306 -0.7581872,-0.34444 -0.7002925,-1.75 z M 621.43862,435.22224 c 0.064,-1.55326 0.37992,-1.8692 0.80555,-0.80556 0.38516,0.9625 0.33779,2.1125 -0.10526,2.55556 -0.44306,0.44305 -0.75819,-0.34445 -0.70029,-1.75 z M 63.066221,414.66668 c 0,-4.03333 0.249954,-5.68333 0.555453,-3.66667 0.3055,2.01667 0.3055,5.31667 0,7.33334 -0.305499,2.01666 -0.555453,0.36666 -0.555453,-3.66667 z M 166.77193,345.8889 c 0.064,-1.55326 0.37993,-1.8692 0.80556,-0.80556 0.38516,0.9625 0.33779,2.1125 -0.10526,2.55556 -0.44306,0.44305 -0.75819,-0.34445 -0.7003,-1.75 z m 0,-9.33333 c 0.064,-1.55326 0.37993,-1.8692 0.80556,-0.80556 0.38516,0.9625 0.33779,2.1125 -0.10526,2.55556 -0.44306,0.44305 -0.75819,-0.34445 -0.7003,-1.75 z M 63.066221,269.33334 c 0,-4.03333 0.249954,-5.68333 0.555453,-3.66667 0.3055,2.01667 0.3055,5.31667 0,7.33334 -0.305499,2.01666 -0.555453,0.36666 -0.555453,-3.66667 z M 621.54388,248.00001 c 0,-1.83334 0.30263,-2.58334 0.67251,-1.66667 0.36989,0.91667 0.36989,2.41667 0,3.33333 -0.36988,0.91667 -0.67251,0.16667 -0.67251,-1.66666 z M 1.5438597,234.66667 c 0,-1.83333 0.3026316,-2.58333 0.6725146,-1.66666 0.3698831,0.91666 0.3698831,2.41666 0,3.33333 -0.369883,0.91667 -0.6725146,0.16667 -0.6725146,-1.66667 z M 64.105265,213.8889 c 0.06398,-1.55326 0.37992,-1.8692 0.805556,-0.80556 0.38516,0.9625 0.337792,2.1125 -0.105264,2.55556 -0.443055,0.44305 -0.758187,-0.34445 -0.700292,-1.75 z M 341.08334,165.75585 c 0.9625,-0.38516 2.1125,-0.33779 2.55556,0.10527 0.44305,0.44305 -0.34445,0.75818 -1.75,0.70029 -1.55326,-0.064 -1.8692,-0.37992 -0.80556,-0.80556 z M 463.75001,63.089183 c 0.9625,-0.385161 2.1125,-0.337792 2.55556,0.105263 0.44306,0.443056 -0.34445,0.758187 -1.75,0.700293 -1.55326,-0.06398 -1.8692,-0.379921 -0.80556,-0.805556 z M 53.333335,62.163261 c 0,-0.276873 1.05,-1.326873 2.333333,-2.333333 2.114741,-1.658494 2.161902,-1.611334 0.503407,0.503407 -1.741826,2.220998 -2.83674,2.927305 -2.83674,1.829926 z M 316.91172,61.668726 c 14.0681,-0.215794 37.4681,-0.216103 52,-6.86e-4 14.53189,0.215418 3.02162,0.391977 -25.57838,0.392354 -28.6,3.77e-4 -40.48973,-0.175874 -26.42162,-0.391668 z m 309.58489,-4.002058 c -1.65849,-2.114741 -1.61133,-2.161901 0.50341,-0.503407 2.221,1.741827 2.9273,2.836741 1.82993,2.836741 -0.27688,0 -1.32688,-1.05 -2.33334,-2.333334 z M 62.000002,53.333335 c 1.327315,-1.466667 2.7133,-2.666667 3.079967,-2.666667 0.366666,0 -0.419319,1.2 -1.746634,2.666667 -1.327315,1.466667 -2.7133,2.666667 -3.079967,2.666667 -0.366666,0 0.419319,-1.2 1.746634,-2.666667 z M 479.75001,1.755848 c 0.9625,-0.3851608 2.1125,-0.3377924 2.55556,0.1052632 0.44306,0.4430555 -0.34444,0.7581871 -1.75,0.7002924 -1.55326,-0.063979 -1.8692,-0.3799204 -0.80556,-0.8055556 z M 238.33334,0.45029241 c 0.91667,-0.36988305 2.41667,-0.36988305 3.33333,0 0.91667,0.36988305 0.16667,0.67251469 -1.66666,0.67251469 -1.83334,0 -2.58334,-0.30263164 -1.66667,-0.67251469 z m 204.00001,0 c 0.91666,-0.36988305 2.41666,-0.36988305 3.33333,0 0.91667,0.36988305 0.16667,0.67251469 -1.66667,0.67251469 -1.83333,0 -2.58333,-0.30263164 -1.66666,-0.67251469 z"
         id="path6" />
      <path
         style="fill:#1b1b1b;fill-opacity:1"
         d="m 243.75001,681.75587 c 0.9625,-0.38516 2.1125,-0.33779 2.55555,0.10526 0.44306,0.44306 -0.34444,0.75819 -1.75,0.70029 -1.55325,-0.064 -1.8692,-0.37992 -0.80555,-0.80555 z m 194.66667,0 c 0.9625,-0.38516 2.1125,-0.33779 2.55556,0.10526 0.44305,0.44306 -0.34445,0.75819 -1.75,0.70029 -1.55326,-0.064 -1.8692,-0.37992 -0.80556,-0.80555 z M 54.496595,621.66669 c -1.658495,-2.11475 -1.611334,-2.16191 0.503407,-0.50341 1.283333,1.00646 2.333333,2.05646 2.333333,2.33333 0,1.09738 -1.094914,0.39107 -2.83674,-1.82992 z m 182.586745,-1.24416 c 0.9625,-0.38516 2.1125,-0.33779 2.55556,0.10527 0.44305,0.44305 -0.34445,0.75818 -1.75,0.70029 -1.55326,-0.064 -1.8692,-0.37992 -0.80556,-0.80556 z m 209.33334,0 c 0.9625,-0.38516 2.1125,-0.33779 2.55556,0.10527 0.44305,0.44305 -0.34445,0.75818 -1.75,0.70029 -1.55326,-0.064 -1.8692,-0.37992 -0.80556,-0.80556 z m 134.91667,-36.92592 c 0,-0.27687 1.05,-1.32687 2.33333,-2.33333 2.11474,-1.6585 2.16191,-1.61134 0.50341,0.5034 -1.74183,2.221 -2.83674,2.92731 -2.83674,1.82993 z M 681.43862,472.55557 c 0.064,-1.55326 0.37992,-1.8692 0.80555,-0.80556 0.38516,0.9625 0.33779,2.1125 -0.10526,2.55556 -0.44306,0.44306 -0.75819,-0.34444 -0.70029,-1.75 z M 1.5438597,445.33335 c 0,-1.83334 0.3026316,-2.58334 0.6725146,-1.66667 0.3698831,0.91667 0.3698831,2.41667 0,3.33333 -0.369883,0.91667 -0.6725146,0.16667 -0.6725146,-1.66666 z M 621.54388,440.00001 c 0,-1.83333 0.30263,-2.58333 0.67251,-1.66666 0.36989,0.91666 0.36989,2.41666 0,3.33333 -0.36988,0.91667 -0.67251,0.16667 -0.67251,-1.66667 z M 63.029821,426.66668 c 0,-3.3 0.260021,-4.65 0.577825,-3 0.317804,1.65 0.317804,4.35 0,6 -0.317804,1.65 -0.577825,0.3 -0.577825,-3 z M 166.8772,341.33334 c 0,-1.83333 0.30263,-2.58333 0.67251,-1.66666 0.36989,0.91666 0.36989,2.41666 0,3.33333 -0.36988,0.91667 -0.67251,0.16667 -0.67251,-1.66667 z M 63.048021,256.66667 c 0.01001,-3.66666 0.26895,-5.00841 0.575423,-2.98166 0.306472,2.02675 0.298282,5.02675 -0.0182,6.66666 -0.316482,1.63992 -0.567232,-0.0183 -0.557223,-3.685 z M 621.43862,243.22223 c 0.064,-1.55326 0.37992,-1.8692 0.80555,-0.80556 0.38516,0.9625 0.33779,2.1125 -0.10526,2.55556 -0.44306,0.44306 -0.75819,-0.34444 -0.70029,-1.75 z m -620.0000235,-4 c 0.063979,-1.55326 0.3799204,-1.8692 0.8055556,-0.80556 0.3851608,0.9625 0.3377924,2.1125 -0.1052631,2.55556 -0.4430556,0.44305 -0.7581872,-0.34445 -0.7002925,-1.75 z M 281.66668,61.711663 c 2.01666,-0.3055 5.31666,-0.3055 7.33333,0 2.01667,0.305499 0.36667,0.555453 -3.66667,0.555453 -4.03333,0 -5.68333,-0.249954 -3.66666,-0.555453 z m 116.01833,-0.0018 c 2.02675,-0.306473 5.02675,-0.298283 6.66667,0.0182 1.63992,0.316482 -0.0183,0.567232 -3.685,0.557222 -3.66667,-0.01001 -5.00842,-0.26895 -2.98167,-0.575422 z M 243.75001,0.42251463 c 0.9625,-0.38516083 2.1125,-0.33779241 2.55555,0.10526316 0.44306,0.44305557 -0.34444,0.75818721 -1.75,0.70029241 -1.55325,-0.063979 -1.8692,-0.3799204 -0.80555,-0.80555557 z m 194.66667,0 c 0.9625,-0.38516083 2.1125,-0.33779241 2.55556,0.10526316 0.44305,0.44305557 -0.34445,0.75818721 -1.75,0.70029241 -1.55326,-0.063979 -1.8692,-0.3799204 -0.80556,-0.80555557 z"
         id="path5" />
      <path
         style="fill:#1b1b1b;fill-opacity:1"
         d="m 247.66667,681.78365 c 0.91667,-0.36989 2.41667,-0.36989 3.33334,0 0.91666,0.36988 0.16666,0.67251 -1.66667,0.67251 -1.83333,0 -2.58333,-0.30263 -1.66667,-0.67251 z m 186.75001,-0.0278 c 0.9625,-0.38516 2.1125,-0.33779 2.55556,0.10526 0.44305,0.44306 -0.34445,0.75819 -1.75,0.70029 -1.55326,-0.064 -1.8692,-0.37992 -0.80556,-0.80555 z M 233.08334,620.42253 c 0.9625,-0.38516 2.1125,-0.33779 2.55556,0.10527 0.44305,0.44305 -0.34445,0.75818 -1.75,0.70029 -1.55326,-0.064 -1.8692,-0.37992 -0.80556,-0.80556 z m 217.33334,0 c 0.9625,-0.38516 2.1125,-0.33779 2.55556,0.10527 0.44305,0.44305 -0.34445,0.75818 -1.75,0.70029 -1.55326,-0.064 -1.8692,-0.37992 -0.80556,-0.80556 z m -349.15512,-38.75585 -4.59489,-5 5,4.59489 c 4.65389,4.27683 5.61305,5.40511 4.59489,5.40511 -0.22281,0 -2.47281,-2.25 -5,-5 z M 340.33334,455.08091 c 1.28334,-0.33537 3.38334,-0.33537 4.66667,0 1.28333,0.33537 0.23333,0.60977 -2.33333,0.60977 -2.56667,0 -3.61667,-0.2744 -2.33334,-0.60977 z m 281.10528,-10.52534 c 0.064,-1.55326 0.37992,-1.8692 0.80555,-0.80556 0.38516,0.9625 0.33779,2.1125 -0.10526,2.55556 -0.44306,0.44305 -0.75819,-0.34445 -0.70029,-1.75 z M 1.5438597,440.00001 c 0,-1.83333 0.3026316,-2.58333 0.6725146,-1.66666 0.3698831,0.91666 0.3698831,2.41666 0,3.33333 -0.369883,0.91667 -0.6725146,0.16667 -0.6725146,-1.66667 z m 61.3333353,-5.33333 c 0,-1.83333 0.302631,-2.58333 0.672514,-1.66667 0.369884,0.91667 0.369884,2.41667 0,3.33334 -0.369883,0.91666 -0.672514,0.16666 -0.672514,-1.66667 z M 228.30934,341.33334 c 0,-2.56666 0.2744,-3.61666 0.60977,-2.33333 0.33537,1.28333 0.33537,3.38333 0,4.66667 -0.33537,1.28333 -0.60977,0.23333 -0.60977,-2.33334 z M 62.771932,248.55556 c 0.06398,-1.55325 0.37992,-1.8692 0.805555,-0.80555 0.385161,0.9625 0.337793,2.1125 -0.105263,2.55555 -0.443055,0.44306 -0.758187,-0.34444 -0.700292,-1.75 z M 1.4385965,243.22223 c 0.063979,-1.55326 0.3799204,-1.8692 0.8055556,-0.80556 0.3851608,0.9625 0.3377924,2.1125 -0.1052631,2.55556 -0.4430556,0.44306 -0.7581872,-0.34444 -0.7002925,-1.75 z M 621.54388,238.66667 c 0,-1.83333 0.30263,-2.58333 0.67251,-1.66666 0.36989,0.91666 0.36989,2.41666 0,3.33333 -0.36988,0.91667 -0.67251,0.16667 -0.67251,-1.66667 z M 270.33334,61.725691 c 1.65,-0.317804 4.35,-0.317804 6,0 1.65,0.317804 0.3,0.577825 -3,0.577825 -3.3,0 -4.65,-0.260021 -3,-0.577825 z m 138.66667,0 c 1.65,-0.317804 4.35,-0.317804 6,0 1.65,0.317804 0.3,0.577825 -3,0.577825 -3.3,0 -4.65,-0.260021 -3,-0.577825 z m -161.25,-61.30317637 c 0.9625,-0.38516083 2.1125,-0.33779241 2.55555,0.10526316 0.44306,0.44305557 -0.34444,0.75818721 -1.75,0.70029241 -1.55325,-0.063979 -1.8692,-0.3799204 -0.80555,-0.80555557 z m 185.25,0.0277778 c 0.91667,-0.36988305 2.41667,-0.36988305 3.33334,0 0.91666,0.36988305 0.16666,0.67251467 -1.66667,0.67251467 -1.83333,0 -2.58333,-0.30263162 -1.66667,-0.67251467 z"
         id="path4" />
      <path
         style="fill:#1b1b1b;fill-opacity:1"
         d="m 254.34889,681.72367 c 1.65855,-0.31892 4.05855,-0.30681 5.33333,0.0269 1.27478,0.33372 -0.0822,0.59466 -3.01555,0.57986 -2.93333,-0.0148 -3.97633,-0.28784 -2.31778,-0.60677 z m 170.65112,0.002 c 1.65,-0.3178 4.35,-0.3178 6,0 1.65,0.3178 0.3,0.57782 -3,0.57782 -3.3,0 -4.65,-0.26002 -3,-0.57782 z M 229.08334,620.42253 c 0.9625,-0.38516 2.1125,-0.33779 2.55556,0.10527 0.44305,0.44305 -0.34445,0.75818 -1.75,0.70029 -1.55326,-0.064 -1.8692,-0.37992 -0.80556,-0.80556 z m 225.33334,0 c 0.9625,-0.38516 2.1125,-0.33779 2.55556,0.10527 0.44305,0.44305 -0.34445,0.75818 -1.75,0.70029 -1.55326,-0.064 -1.8692,-0.37992 -0.80556,-0.80556 z m 167.1272,-171.08918 c 0,-1.83334 0.30263,-2.58334 0.67251,-1.66667 0.36989,0.91667 0.36989,2.41667 0,3.33333 -0.36988,0.91667 -0.67251,0.16667 -0.67251,-1.66666 z M 62.771932,439.22224 c 0.06398,-1.55326 0.37992,-1.8692 0.805555,-0.80556 0.385161,0.9625 0.337793,2.1125 -0.105263,2.55556 -0.443055,0.44305 -0.758187,-0.34445 -0.700292,-1.75 z m -61.3333355,-4 c 0.063979,-1.55326 0.3799204,-1.8692 0.8055556,-0.80556 0.3851608,0.9625 0.3377924,2.1125 -0.1052631,2.55556 -0.4430556,0.44305 -0.7581872,-0.34445 -0.7002925,-1.75 z m 259.7938335,-13.55556 -3.23242,-3.66667 3.66666,3.23242 c 3.42706,3.02118 4.27812,4.10092 3.23242,4.10092 -0.23883,0 -1.88883,-1.65 -3.66666,-3.66667 z m 194.97811,-80.33334 c 0,-1.83333 0.30263,-2.58333 0.67251,-1.66666 0.36989,0.91666 0.36989,2.41666 0,3.33333 -0.36988,0.91667 -0.67251,0.16667 -0.67251,-1.66667 z M 1.5438597,248.00001 c 0,-1.83334 0.3026316,-2.58334 0.6725146,-1.66667 0.3698831,0.91667 0.3698831,2.41667 0,3.33333 -0.369883,0.91667 -0.6725146,0.16667 -0.6725146,-1.66666 z m 61.3333353,-4 c 0,-1.83334 0.302631,-2.58334 0.672514,-1.66667 0.369884,0.91667 0.369884,2.41667 0,3.33333 -0.369883,0.91667 -0.672514,0.16667 -0.672514,-1.66666 z M 621.43862,233.8889 c 0.064,-1.55326 0.37992,-1.8692 0.80555,-0.80556 0.38516,0.9625 0.33779,2.1125 -0.10526,2.55556 -0.44306,0.44305 -0.75819,-0.34445 -0.70029,-1.75 z m -280.43861,-6.77193 c 0.91667,-0.36989 2.41667,-0.36989 3.33333,0 0.91667,0.36988 0.16667,0.67251 -1.66666,0.67251 -1.83334,0 -2.58334,-0.30263 -1.66667,-0.67251 z M 261.01555,61.723654 c 1.65855,-0.318924 4.05855,-0.306816 5.33334,0.02691 1.27478,0.333723 -0.0822,0.594661 -3.01555,0.579862 -2.93333,-0.0148 -3.97634,-0.287846 -2.31779,-0.60677 z m 158.65113,0.002 c 1.65,-0.317804 4.35,-0.317804 6,0 1.65,0.317804 0.3,0.577825 -3,0.577825 -3.3,0 -4.65,-0.260021 -3,-0.577825 z M 253.00001,0.392356 c 1.65,-0.31780387 4.35,-0.31780387 6,0 1.65,0.31780387 0.3,0.57782522 -3,0.57782522 -3.3,0 -4.65,-0.26002135 -3,-0.57782522 z M 425.01556,0.390319 c 1.65855,-0.3189243 4.05855,-0.30681588 5.33333,0.0269076 1.27479,0.33372348 -0.0822,0.5946615 -3.01554,0.57986236 -2.93334,-0.0147992 -3.97634,-0.28784566 -2.31779,-0.60676996 z"
         id="path3" />
      <path
         style="fill:#1b1b1b;fill-opacity:1"
         d="m 229.33334,681.36881 c -17.96667,-0.58142 -39.26667,-1.75774 -47.33333,-2.61405 C 127.53996,672.97359 88.724423,655.61679 57.027695,622.87201 27.288911,592.14992 11.243303,555.59807 5.4303233,505.33335 1.5133032,471.46295 -0.11380185,306.61276 2.6929866,228.00001 4.2360362,184.78215 6.5917328,163.06136 12.019991,142 21.476004,105.31117 37.092809,78.40119 63.355797,53.541083 93.046995,25.43589 130.8719,9.4609476 180.54476,4.0475829 c 47.83989,-5.2136072 273.03394,-5.2279796 322.78859,-0.020601 38.77735,4.0584827 71.34469,14.9763011 98.5617,33.0416571 12.34306,8.192739 37.14418,33.020221 45.24716,45.295263 18.05929,27.357668 28.34273,57.876608 33.12338,98.302768 2.48979,21.05412 2.49928,297.19519 0.011,319.33334 -6.2283,55.41258 -22.61697,93.1033 -54.22845,124.71478 -34.54146,34.54145 -75.76405,50.95832 -138.8362,55.29141 -26.32014,1.80821 -213.53923,2.79746 -257.87858,1.36261 z m 266.00001,-62.54614 c 40.2911,-4.66766 65.60367,-15.02779 86.70999,-35.48932 19.93065,-19.32178 31.62345,-44.27438 36.55081,-78 2.90825,-19.9057 4.02464,-65.21234 4.02464,-163.33334 0,-126.04304 -1.39674,-158.36876 -7.94994,-183.99156 -5.89048,-23.03153 -14.41418,-38.91423 -29.18956,-54.39056 C 569.91024,87.310229 557.18354,79.464342 534.59286,72.246902 515.80254,66.243627 497.28162,64.19989 446.39039,62.513979 393.6834,60.767917 228.56962,61.766029 199.33334,64.007438 152.22383,67.619104 125.62691,77.965832 102,101.87202 c -22.667053,22.935 -32.387594,47.15635 -36.705362,91.46132 -2.215989,22.73843 -3.274001,216.10667 -1.437178,262.66667 1.954689,49.5477 4.530165,66.53778 13.470996,88.86645 11.726886,29.28651 35.475674,52.3757 65.338214,63.52352 18.26309,6.8177 42.58683,10.69172 76,12.10445 27.8734,1.17851 264.40021,-0.25071 276.66668,-1.67176 z M 314.66668,514.12547 C 276.85597,507.4109 246.0649,491.4785 219.21197,464.73382 196.23758,441.85203 181.48098,416.08693 172.9728,384.00001 c -3.81862,-14.40115 -4.0731,-16.87346 -4.18596,-40.66667 -0.094,-19.81485 0.40859,-27.80213 2.30717,-36.66666 5.05777,-23.61488 13.19156,-42.94542 26.34413,-62.60873 26.90639,-40.22548 71.0092,-68.21018 119.13069,-75.59237 17.2929,-2.65286 47.24453,-1.6922 63.43118,2.03448 33.13646,7.62905 61.87791,23.37319 85.43668,46.80095 24.60219,24.46537 40.22216,52.64147 48.06327,86.699 3.72668,16.18665 4.68734,46.13828 2.03448,63.43118 -10.76381,70.16486 -62.46625,126.65736 -131.80563,144.01697 -11.36485,2.84527 -17.63175,3.52458 -36.39547,3.94513 -15.13997,0.33933 -25.98726,-0.0817 -32.66666,-1.26782 z m 55.92323,-62.26682 c 31.78468,-8.09918 59.28748,-30.47813 74.44082,-60.5723 15.10843,-30.00495 15.11641,-69.77592 0.0201,-99.90602 -17.77829,-35.48283 -52.02486,-59.36848 -90.63145,-63.21189 -34.89036,-3.47345 -67.13685,8.00582 -92.16296,32.80865 -14.76003,14.62835 -24.86843,32.27048 -30.38048,53.02292 -3.96627,14.93269 -3.97263,39.68866 -0.014,54.66667 6.3,23.83714 21.00891,46.87847 39.15511,61.336 28.2942,22.54269 65.1394,30.63011 99.57294,21.85597 z m 144.01085,-253.6013 c -18.11438,-5.10444 -29.7628,-20.3194 -29.79983,-38.92401 -0.0319,-16.03843 8.56326,-29.83301 23.02937,-36.96027 4.95606,-2.44178 8.39912,-3.03973 17.50305,-3.03973 10.07184,0 12.12864,0.4405 18.4784,3.95753 29.26811,16.21109 28.20639,58.23247 -1.8236,72.17597 -8.39632,3.89858 -19.45612,5.02546 -27.38739,2.79051 z"
         id="path2" />
    </g>
  </g>
</svg>
