<?xml version="1.0" encoding="UTF-8" standalone="no"?>
<!-- Created with Inkscape (http://www.inkscape.org/) -->

<svg
   version="1.1"
   id="svg1"
   width="546.1333"
   height="546.1333"
   viewBox="0 0 546.1333 546.1333"
   sodipodi:docname="office.svg"
   inkscape:version="1.3 (0e150ed6c4, 2023-07-21)"
   xmlns:inkscape="http://www.inkscape.org/namespaces/inkscape"
   xmlns:sodipodi="http://sodipodi.sourceforge.net/DTD/sodipodi-0.dtd"
   xmlns="http://www.w3.org/2000/svg"
   xmlns:svg="http://www.w3.org/2000/svg">
  <defs
     id="defs1" />
  <sodipodi:namedview
     id="namedview1"
     pagecolor="#505050"
     bordercolor="#eeeeee"
     borderopacity="1"
     inkscape:showpageshadow="0"
     inkscape:pageopacity="0"
     inkscape:pagecheckerboard="0"
     inkscape:deskcolor="#505050"
     inkscape:zoom="1.4227296"
     inkscape:cx="273.06665"
     inkscape:cy="273.06665"
     inkscape:window-width="1920"
     inkscape:window-height="991"
     inkscape:window-x="-9"
     inkscape:window-y="-9"
     inkscape:window-maximized="1"
     inkscape:current-layer="g1" />
  <g
     inkscape:groupmode="layer"
     inkscape:label="Image"
     id="g1">
    <g
       id="g2"
       transform="translate(-9.8402388)"
       style="fill:#1b1b1b;fill-opacity:1">
      <path
         style="fill:#1b1b1b;fill-opacity:1"
         d="m 312.33331,476.07132 c 0.77,-0.30813 1.69,-0.27024 2.04445,0.0842 0.35444,0.35444 -0.27556,0.60655 -1.4,0.56023 -1.24261,-0.0512 -1.49536,-0.30394 -0.64445,-0.64444 z m -45.86666,-5.33334 c 0.77,-0.30812 1.69,-0.27023 2.04445,0.0842 0.35444,0.35445 -0.27556,0.60655 -1.4,0.56024 -1.24261,-0.0512 -1.49536,-0.30394 -0.64445,-0.64445 z m -27.73333,-3.2 c 0.77,-0.30812 1.69,-0.27023 2.04444,0.0842 0.35445,0.35445 -0.27555,0.60655 -1.4,0.56024 -1.2426,-0.0512 -1.49536,-0.30394 -0.64444,-0.64445 z m -45.86666,-5.33333 c 0.77,-0.30813 1.69,-0.27023 2.04444,0.0842 0.35444,0.35445 -0.27556,0.60655 -1.4,0.56024 -1.24261,-0.0512 -1.49536,-0.30394 -0.64444,-0.64445 z m -27.73334,-3.2 c 0.77,-0.30813 1.69,-0.27023 2.04445,0.0842 0.35444,0.35445 -0.27556,0.60655 -1.4,0.56024 -1.24261,-0.0512 -1.49536,-0.30394 -0.64445,-0.64445 z m -45.86666,-5.33333 c 0.77,-0.30813 1.69,-0.27024 2.04444,0.0842 0.35445,0.35444 -0.27555,0.60655 -1.4,0.56023 -1.2426,-0.0512 -1.49536,-0.30393 -0.64444,-0.64444 z m -27.733332,-3.2 c 0.77,-0.30813 1.69,-0.27024 2.044444,0.0842 0.354445,0.35444 -0.275555,0.60655 -1.4,0.56023 -1.242605,-0.0512 -1.495359,-0.30393 -0.644444,-0.64444 z m -45.866664,-5.33333 c 0.77,-0.30813 1.69,-0.27024 2.044444,0.0842 0.354445,0.35444 -0.275555,0.60655 -1.4,0.56023 -1.242605,-0.0512 -1.495359,-0.30394 -0.644444,-0.64444 z"
         id="path3" />
      <path
         style="fill:#1b1b1b;fill-opacity:1"
         d="M 189.86666,495.46634 C 106.85333,467.69247 39.303026,444.9305 39.754875,444.88418 c 1.106296,-0.11339 294.920065,33.86118 298.645105,34.53324 l 2.93333,0.52922 V 291.17332 c 0,-179.09814 -0.0957,-188.76994 -1.86666,-188.70735 -1.02667,0.0363 -46.98667,7.61535 -102.13333,16.84235 l -100.26666,16.77637 -0.2707,136.66875 -0.2707,136.66875 -51.195964,17.06939 -51.195965,17.06938 V 281.66467 119.76837 L 187.71795,60.034876 341.30256,0.30138126 426.65127,25.913876 511.99997,51.52637 v 221.5428 221.54281 l -84.49935,25.35009 c -46.47464,13.94256 -84.99464,25.49683 -85.6,25.67616 -0.60535,0.17933 -69.02064,-22.39802 -152.03396,-50.17189 z"
         id="path2" />
    </g>
  </g>
</svg>
