<?xml version="1.0" encoding="UTF-8" standalone="no"?>
<!-- Created with Inkscape (http://www.inkscape.org/) -->

<svg
   version="1.1"
   id="svg1"
   width="512"
   height="512"
   viewBox="0 0 512 512"
   sodipodi:docname="rutas.svg"
   inkscape:version="1.3 (0e150ed6c4, 2023-07-21)"
   xmlns:inkscape="http://www.inkscape.org/namespaces/inkscape"
   xmlns:sodipodi="http://sodipodi.sourceforge.net/DTD/sodipodi-0.dtd"
   xmlns="http://www.w3.org/2000/svg"
   xmlns:svg="http://www.w3.org/2000/svg">
  <defs
     id="defs1" />
  <sodipodi:namedview
     id="namedview1"
     pagecolor="#505050"
     bordercolor="#eeeeee"
     borderopacity="1"
     inkscape:showpageshadow="0"
     inkscape:pageopacity="0"
     inkscape:pagecheckerboard="0"
     inkscape:deskcolor="#505050"
     inkscape:zoom="1.5175781"
     inkscape:cx="256"
     inkscape:cy="256"
     inkscape:window-width="1920"
     inkscape:window-height="991"
     inkscape:window-x="-9"
     inkscape:window-y="-9"
     inkscape:window-maximized="1"
     inkscape:current-layer="g1" />
  <g
     inkscape:groupmode="layer"
     inkscape:label="Image"
     id="g1">
    <g
       id="g2"
       transform="translate(21.745174,1.3178888)"
       style="fill:#1b1b1b;fill-opacity:1">
      <path
         style="fill:#1b1b1b;fill-opacity:1"
         d="m 254.25,36.310674 c 0.9625,-0.251527 2.5375,-0.251527 3.5,0 0.9625,0.251528 0.175,0.457323 -1.75,0.457323 -1.925,0 -2.7125,-0.205795 -1.75,-0.457323 z"
         id="path7" />
      <path
         style="fill:#1b1b1b;fill-opacity:1"
         d="m 313.5,232 c 0.99549,-1.1 2.03498,-2 2.30998,-2 0.275,0 -0.31449,0.9 -1.30998,2 -0.99549,1.1 -2.03498,2 -2.30998,2 -0.275,0 0.31449,-0.9 1.30998,-2 z M 253.75,91.294267 c 1.2375,-0.238353 3.2625,-0.238353 4.5,0 1.2375,0.238353 0.225,0.433369 -2.25,0.433369 -2.475,0 -3.4875,-0.195016 -2.25,-0.433369 z"
         id="path6" />
      <path
         style="fill:#1b1b1b;fill-opacity:1"
         d="m 161,74.622445 c 0,-0.207656 0.7875,-0.995156 1.75,-1.75 1.58606,-1.243871 1.62143,-1.208501 0.37756,0.377555 C 161.82119,74.915748 161,75.445479 161,74.622445 Z"
         id="path5" />
      <path
         style="fill:#1b1b1b;fill-opacity:1"
         d="m 158.5,77 c 0.99549,-1.1 2.03498,-2 2.30998,-2 0.275,0 -0.31449,0.9 -1.30998,2 -0.99549,1.1 -2.03498,2 -2.30998,2 -0.275,0 0.31449,-0.9 1.30998,-2 z M 351.92431,76.25 349.5,73.5 l 2.75,2.424314 c 1.5125,1.333373 2.75,2.570873 2.75,2.75 0,0.784274 -0.8098,0.145975 -3.07569,-2.424314 z"
         id="path4" />
      <path
         style="fill:#1b1b1b;fill-opacity:1"
         d="m 173.25218,173.5 c 0.0111,-2.2 0.21589,-2.98225 0.45508,-1.73834 0.23919,1.24391 0.23011,3.04391 -0.0202,4 -0.25029,0.95609 -0.446,-0.0617 -0.4349,-2.26166 z M 338.232,174 c 0,-1.925 0.2058,-2.7125 0.45733,-1.75 0.25152,0.9625 0.25152,2.5375 0,3.5 -0.25153,0.9625 -0.45733,0.175 -0.45733,-1.75 z"
         id="path3" />
      <path
         style="fill:#1b1b1b;fill-opacity:1"
         d="m 193.5,352.4499 c -34.1,-66.83454 -63.65839,-125.90113 -65.68531,-131.25908 -9.62946,-25.45452 -11.13944,-53.90784 -4.31267,-81.26596 11.8003,-47.289456 49.6788,-85.574789 97.26502,-98.3097 13.72426,-3.672853 26.55152,-4.99464 41.63973,-4.290773 34.26666,1.598545 64.03714,14.445953 88.51556,38.198763 11.47283,11.13274 19.19686,21.511635 26.54928,35.67465 10.73157,20.67229 14.98023,38.7317 14.89251,63.3022 -0.0666,18.65154 -2.20717,30.88161 -8.17881,46.72917 -3.36086,8.91904 -127.0265,252.74905 -128.18531,252.74138 -0.275,-0.002 -28.4,-54.68612 -62.5,-121.52065 z m 84,-98.92448 c 8.57797,-2.33439 22.96338,-9.73926 30.24601,-15.56908 13.12268,-10.50484 23.94964,-27.48507 28.34631,-44.45634 2.83099,-10.92766 2.85705,-28.899 0.0574,-39.59339 C 331.9279,137.77949 324.4807,125.41299 311.81391,113.49564 297.619,100.14056 281.05719,92.866562 261.39558,91.351734 c -38.81446,-2.99046 -75.30452,23.687816 -85.56142,62.554876 -2.82239,10.695 -2.78112,28.62539 0.0911,39.59339 8.04857,30.73444 32.17417,54.22172 62.57469,60.91907 8.89308,1.95918 30.32124,1.46817 39,-0.89365 z"
         id="path2" />
    </g>
  </g>
</svg>
